<?xml version="1.0" encoding="UTF-8"?>
<svg xmlns="http://www.w3.org/2000/svg" version="1.1" viewBox="0 0 300 300">
  <defs>
    <style>
      .cls-1 {
        fill: #000;
      }

      .cls-1, .cls-2, .cls-3, .cls-4 {
        stroke-width: 0px;
      }

      .cls-5 {
        fill: none;
        stroke: #000;
        stroke-miterlimit: 10;
        stroke-width: 7px;
      }

      .cls-2 {
        fill: #ff2c3c;
      }

      .cls-3 {
        fill: #fff;
      }

      .cls-4 {
        fill: #ff3140;
      }
    </style>
  </defs>
  <g id="Capa_3" data-name="Capa 3">
    <circle class="cls-2" cx="150.04" cy="149.64" r="145.42"/>
    <g>
      <path class="cls-2" d="M28,181.81c18.6,13.59,39.99,23.35,62.44,28.5"/>
      <path class="cls-4" d="M27.25,183.11c14.6,10.64,30.88,18.95,48.05,24.56,4.85,1.59,9.77,2.95,14.75,4.09,1.88.43,2.68-2.46.8-2.89-17.37-4.01-34.05-10.72-49.33-19.89-4.38-2.63-8.63-5.45-12.75-8.46-1.56-1.14-3.06,1.46-1.51,2.59h0Z"/>
    </g>
    <path class="cls-2" d="M44.69,225.31c16.16,10.35,33.15,19.37,50.77,26.97,1.75.76,3.28-1.83,1.51-2.59-17.62-7.6-34.61-16.62-50.77-26.97-1.63-1.04-3.14,1.55-1.51,2.59h0Z"/>
    <path class="cls-2" d="M19.66,184.34c7.25,2.16,12.34,8.21,16.19,14.42,2.19,3.54,4.1,7.23,6.21,10.82s4.54,7.06,7.14,10.36c3.02,3.83,6.27,7.46,9.52,11.09l1.82-2.36c-8.71-4.52-15.54-12.27-18.8-21.55-.64-1.81-3.54-1.03-2.89.8,3.51,9.99,10.76,18.46,20.18,23.34,1.52.79,2.97-1.07,1.82-2.36-5.89-6.58-11.71-13.2-16.2-20.84-4.1-6.97-7.59-14.49-13.5-20.17-3.04-2.92-6.62-5.24-10.69-6.45-1.85-.55-2.65,2.34-.8,2.89h0Z"/>
    <path class="cls-2" d="M33.37,201.11c7.17,3.53,14.35,7.06,21.39,10.86s13.63,7.42,19.83,11.98c3.01,2.21,5.9,4.95,7.3,8.49l2.51-1.46c-6.09-5.03-11.35-10.95-15.59-17.61-1.03-1.62-3.63-.12-2.59,1.51,4.37,6.87,9.78,13.03,16.06,18.22,1.01.84,3.12.08,2.51-1.46-2.7-6.83-9.17-10.84-15.15-14.56-7.12-4.43-14.52-8.41-21.99-12.21-4.23-2.15-8.5-4.25-12.76-6.35-1.73-.85-3.25,1.74-1.51,2.59h0Z"/>
    <path class="cls-2" d="M61.6,213.51c12.96,3.51,25.98,6.78,39.07,9.81,1.88.43,2.68-2.46.8-2.89-13.08-3.02-26.11-6.29-39.07-9.81-1.87-.51-2.66,2.39-.8,2.89h0Z"/>
    <path class="cls-2" d="M67.92,215.83c1.93,0,1.93-3,0-3s-1.93,3,0,3h0Z"/>
    <path class="cls-2" d="M58.27,204.42c16.69,7.06,33.38,14.11,50.07,21.17.75.32,1.6.22,2.05-.54.37-.63.21-1.74-.54-2.05-16.69-7.06-33.38-14.11-50.07-21.17-.75-.32-1.6-.22-2.05.54-.37.63-.21,1.74.54,2.05h0Z"/>
    <path class="cls-2" d="M52.06,204.86c15.88,9.5,32.21,18.24,48.92,26.17,1.74.82,3.26-1.76,1.51-2.59-16.72-7.93-33.05-16.66-48.92-26.17-1.66-.99-3.17,1.6-1.51,2.59h0Z"/>
    <path class="cls-2" d="M100.94,223.2c19.93,2.86,39.91,5.33,59.93,7.4,5.75.59,11.51,1.16,17.27,1.69,1.92.18,1.91-2.82,0-3-19.91-1.83-39.79-4.05-59.61-6.67-5.6-.74-11.2-1.51-16.79-2.31-.81-.12-1.6.2-1.85,1.05-.2.7.25,1.73,1.05,1.85h0Z"/>
    <path class="cls-2" d="M175.76,230.29c-20.33,1.04-40.73.6-61-1.36-5.75-.56-11.49-1.23-17.21-2.03-.81-.11-1.6.2-1.85,1.05-.2.7.25,1.73,1.05,1.85,20.38,2.85,40.95,4.23,61.53,4.04,5.83-.05,11.65-.24,17.47-.53,1.92-.1,1.93-3.1,0-3h0Z"/>
    <path class="cls-2" d="M88.24,228.08c1.93,0,1.93-3,0-3s-1.93,3,0,3h0Z"/>
    <path class="cls-2" d="M88.24,228.08c1.93,0,1.93-3,0-3s-1.93,3,0,3h0Z"/>
    <path class="cls-2" d="M88.24,228.08c1.93,0,1.93-3,0-3s-1.93,3,0,3h0Z"/>
    <path class="cls-3" d="M67.68,211.65c21,8.34,42.05,16.52,63.16,24.56,5.95,2.27,11.91,4.52,17.88,6.77l.8-2.89c-21.84-3.1-42.94-9.9-63.23-18.42-10.3-4.33-20.41-9.11-30.41-14.08-4.92-2.44-9.81-4.94-14.69-7.46-4.89-2.53-9.81-5.07-14.31-8.26-8.98-6.37-15.85-15.59-19.49-25.97l-2.51,1.46c2.85,3.29,3.28,7.8,3.57,11.96.33,4.65.63,9.18,2.38,13.56.94,2.35,2.08,4.61,2.92,6.99.9,2.54,1.28,5.19,1.96,7.79,1.29,4.96,4.37,8.54,7.93,12.09,4.35,4.34,8.93,8.44,13.72,12.29,1.49,1.2,3.63-.91,2.12-2.12-4.24-3.41-8.32-7.02-12.22-10.82-3.7-3.6-7.31-7.1-8.65-12.24-.64-2.45-1-4.96-1.81-7.37-.86-2.54-2.07-4.93-3.06-7.41-1.73-4.33-1.97-8.74-2.31-13.33-.36-4.86-1.11-9.71-4.41-13.51-.97-1.12-3,.06-2.51,1.46,3.26,9.3,8.88,17.74,16.33,24.21,4.12,3.58,8.76,6.45,13.55,9.04,5.04,2.72,10.16,5.29,15.27,7.87,20.11,10.15,40.64,19.65,62.12,26.53,12.06,3.86,24.4,6.86,36.94,8.64,1.89.27,2.64-2.2.8-2.89-21.14-7.96-42.23-16.06-63.26-24.31-5.93-2.33-11.86-4.67-17.78-7.02-1.79-.71-2.57,2.19-.8,2.89h0Z"/>
    <path class="cls-3" d="M20.51,174.95c4.59,6.91,8.67,14.15,12.15,21.68,1.77,3.82,3.38,7.7,4.83,11.65.72,1.96,1.41,3.94,2.05,5.93s1.33,3.87,1.63,5.86c.61,4.13-2.56,7.03-3.03,10.95s1.7,7.68,4.06,10.73c1.16,1.51,2.39,2.96,3.42,4.56s1.75,3.43,2.44,5.25c1.41,3.7,3.13,6.78,6.45,9.1,3.69,2.57,8.18,4.26,12.42,5.66,4.59,1.52,9.31,2.51,14.11,3.07,1.91.22,1.9-2.78,0-3-8.04-.94-16.4-3.26-23.45-7.33-1.61-.93-3.15-2.05-4.28-3.54s-1.79-3.23-2.44-4.95-1.3-3.46-2.23-5.06-2.14-3.11-3.31-4.59c-2.24-2.84-5.03-6.45-4.1-10.32.42-1.75,1.44-3.29,2.14-4.93.76-1.8,1.04-3.63.8-5.57-.47-3.94-2.08-7.87-3.42-11.58s-2.87-7.5-4.5-11.17c-3.7-8.33-8.12-16.34-13.17-23.93-1.06-1.6-3.66-.1-2.59,1.51h0Z"/>
    <path class="cls-3" d="M113.54,269.48c-6.9,1-13.91,1.27-20.88.85-3.5-.21-6.98-.6-10.43-1.17-2.79-.47-5.91-.77-7.79-3.13-1.54-1.93-2.19-4.46-2.86-6.78-.94-3.25-1.98-6.46-2.98-9.68-1.91-6.21-3.66-12.63-3.29-19.18s3.35-13.14,8.24-17.82c.87-.84.35-2.13-.66-2.51-6.56-2.46-13.54-3.41-20.15-5.7-3.18-1.1-6.31-2.58-8.92-4.73-1.19-.98-2.92-2.39-2.9-4.09s1.87-2.68,3.08-3.43c3.97-2.47,8.2-4.47,12.62-5.99,1.39-.48,1.46-2.44,0-2.89-9.2-2.86-18.8-4.36-28.43-4.44-.78,0-1.54.69-1.5,1.5.22,4.16,4.74,5.42,8.01,6.55,4.55,1.57,9.14,3.03,13.76,4.38,9.39,2.74,18.92,5.01,28.54,6.82l.4-2.95c-7.54-.62-15.09-1.24-22.63-1.86-1.01-.08-1.66,1.02-1.45,1.9.7,2.93,3.31,4.57,5.77,5.95,2.96,1.67,6.04,3.13,9.18,4.42,6.32,2.6,12.97,4.41,19.74,5.36,1.6.23,3.21.42,4.83.55s3.39.48,4.94.06c3.48-.94,2.33-4.95,1.24-7.3-1.29-2.79-3.43-5.13-5.63-7.24-2.52-2.42-5.19-4.69-7.9-6.88-6.23-5.05-12.8-9.66-19.36-14.25l.54,2.05c.55-.88,3.43.91,4.01,1.25,1.55.9,2.97,2,4.27,3.24,2.61,2.48,4.72,5.41,6.59,8.46,4.09,6.67,7.2,13.96,12.6,19.76,1.32,1.42,3.44-.71,2.12-2.12-6.02-6.46-9.06-14.94-14.06-22.11-2.3-3.29-4.96-6.33-8.24-8.67-2.44-1.74-7.62-4.95-9.88-1.32-.45.73-.11,1.6.54,2.05,5.07,3.55,10.14,7.1,15.05,10.86s9.7,7.49,13.72,11.98c.86.95,1.64,1.96,2.29,3.06.61,1.02,1.52,2.56,1.48,3.79-.02.62-.29.54-.86.55-.71.02-1.43-.06-2.14-.11-1.56-.11-3.11-.26-4.66-.45-5.98-.77-11.88-2.25-17.53-4.33-3.09-1.14-6.1-2.47-9.02-3.98-2.3-1.19-6.07-2.62-6.74-5.43l-1.45,1.9c7.54.62,15.09,1.24,22.63,1.86,1.67.14,2.06-2.63.4-2.95-8.83-1.66-17.58-3.71-26.23-6.16-4.32-1.22-8.62-2.55-12.88-3.96-2.02-.67-4.1-1.3-6.08-2.11-1.11-.46-2.84-1.24-2.92-2.63l-1.5,1.5c9.39.08,18.67,1.55,27.63,4.34v-2.89c-4.37,1.51-8.6,3.44-12.57,5.82-1.67,1-3.43,2.06-4.51,3.73s-1.02,3.75-.11,5.5c1.75,3.36,5.77,5.72,9.09,7.28,3.6,1.68,7.42,2.77,11.26,3.73,4.4,1.1,8.85,2.08,13.1,3.67l-.66-2.51c-4.6,4.41-7.78,10.29-8.76,16.6-1.12,7.13.36,14.26,2.37,21.09,1.01,3.43,2.14,6.82,3.16,10.25.83,2.78,1.5,5.69,3,8.2,1.58,2.64,3.92,4.18,6.89,4.85,3.51.8,7.13,1.25,10.71,1.6,8.51.83,17.08.57,25.54-.66,1.9-.27,1.09-3.17-.8-2.89h0Z"/>
    <path class="cls-3" d="M41.83,236.67c8.51,6.44,16.66,13.35,24.42,20.67l.3-2.36c-1.78.89-4.14-1.59-5.36-2.59-1.91-1.56-3.79-3.15-5.66-4.77-3.67-3.17-7.26-6.44-10.77-9.79-1.44-1.37-3.27.64-2.12,2.12,6.03,7.8,12.39,15.34,19.06,22.59,1.31,1.43,3.42-.7,2.12-2.12-4.41-4.83-8.71-9.76-12.9-14.78l-.66,2.51c.52-.21,1.16-.31,1.56.21.62.82,2.04,1.12,2.59,0,1.06-2.14.56-4.29-.31-6.41-1.03-2.5-2.14-4.97-3.29-7.42-2.29-4.88-4.78-9.66-7.47-14.33l-2.05,2.05c8.62,4.36,17.07,9.03,25.33,14.02,1.42.86,3.18-1.28,1.82-2.36-6.81-5.39-14.03-10.23-21.65-14.42-1.22-.67-2.99.77-2.05,2.05,4.83,6.62,8.9,13.75,12.16,21.27.63,1.46,2.74.59,2.8-.76.33-7.93.33-15.86-.01-23.79l-2.95.4c1.25,6.12,2.51,12.24,3.76,18.35.28,1.39,2.68,1.47,2.89,0,.54-3.73.73-7.46.52-11.22l-2.95.4c2.94,9.11,5.88,18.22,8.83,27.33l2.51-1.46c-6.35-7.68-10.78-16.81-12.98-26.52l-2.89.8c2.59,6.73,2.41,13.97,2.2,21.06-.05,1.71,2.49,2.02,2.95.4,2.23-7.97,3.28-16.24,3.12-24.51l-2.95.4c.94,3.11,1.34,6.28,1.19,9.53h3c-.57-7.39-1.15-14.78-1.72-22.18l-2.95.4c1.25,5.06,6.13,7.97,10.99,8.74,2.99.47,6.01.37,9.02.28s6.27-.24,9.4-.42c12.86-.74,25.68-2.11,38.46-3.71,7.18-.9,14.36-1.87,21.53-2.83,1.3-.18,1.41-2.18.36-2.74-3.84-2.05-8.05-2.87-12.33-3.39-4.79-.59-9.6-1.01-14.41-1.44-9.86-.87-19.75-1.53-29.64-1.98-1.94-.09-1.91,2.87,0,3,14.97,1.03,29.96,1.64,44.96,1.84,1.95.03,1.9-2.86,0-3-13.27-.99-26.54-1.98-39.81-2.97v3c10.2-.24,20.41-.49,30.61-.73,1.98-.05,1.87-2.78,0-3-12.32-1.45-24.63-2.9-36.95-4.34v3c13.71-.65,27.43-1.29,41.14-1.94,1.97-.09,1.88-2.77,0-3-4.08-.49-8.14-.4-12.2.17-1.75.25-1.2,2.86.4,2.95,20.91,1.1,41.82,2.03,62.74,2.76,5.98.21,11.96.41,17.93.59,1.95.06,1.89-2.83,0-3-15.06-1.33-30.12-2.66-45.19-4v3c13.84-.98,27.78-.36,41.47,1.9l.4-2.95c-19.57,1.85-39.58-1.26-58.83,3.75-1.46.38-1.39,2.48,0,2.89,4.83,1.43,9.66,2.86,14.5,4.29l.4-2.95c-12.89,1.55-25.87,2.27-38.85,2.15-1.94-.02-1.92,2.92,0,3,16.8.7,33.59,1.39,50.39,2.09v-3c-18.2-.22-36.4-.44-54.59-.66-1.94-.02-1.93,2.93,0,3,16.2.57,32.4,1.14,48.6,1.71,1.95.07,1.9-2.85,0-3-12.58-.97-25.1-2.64-37.49-5.01v2.89c12.98-2.14,26.31-2.24,39.32-.28l.4-2.95c-18,.82-36,1.64-54,2.45-1.59.07-2.15,2.69-.4,2.95,8.41,1.23,16.82,2.47,25.23,3.7l.4-2.95c-16.65.89-33.34.69-49.96-.62v3c14.81.75,29.61,1.51,44.42,2.26v-3c-14.38-.01-28.76-.02-43.14-.04-1.97,0-1.88,2.8,0,3,19.75,2.05,39.51,4.1,59.26,6.15v-3c-9.56.07-19.12.14-28.68.21-1.93.01-1.93,2.94,0,3,16.03.48,32.11.96,48.01,3.18l.4-2.95c-19.69.53-39.38.65-59.07.36-1.95-.03-1.9,2.86,0,3,8.77.65,17.54,1.3,26.31,1.96v-3c-12.59-.61-25.18-1.22-37.78-1.83-1.93-.09-1.92,2.9,0,3,8.2.41,16.39.9,24.58,1.46,3.98.27,7.96.53,11.93.87,3.67.31,7.4.82,10.73,2.5l.76-2.8c-11.02.56-22.14,1.16-32.84,4.05-1.74.47-1.19,2.76.4,2.95,20.2,2.34,40.4,4.69,60.6,7.03v-3c-12.83-.03-25.66-.06-38.49-.09-1.94,0-1.92,2.89,0,3,5.44.3,10.85.92,16.21,1.86l.4-2.95c-14.17.92-28.34,1.85-42.51,2.77-1.58.1-2.17,2.65-.4,2.95,6.89,1.15,13.79,2.3,20.68,3.46l10.22,1.71c1.25.21,6.46.4,6.53,2.37l1.5-1.5c-12.14.83-24.28,1.65-36.42,2.48-1.96.13-1.9,2.79,0,3,20.33,2.29,40.67,4.58,61,6.87v-3c-14.98.51-29.96,1.02-44.94,1.53-1.92.07-1.94,3,0,3,12.66.02,25.31.81,37.88,2.36v-3c-15.85.87-31.73.96-47.58.25v3c7.89-.52,15.8-.75,23.71-.71,1.93,0,1.93-2.96,0-3-15.34-.35-30.66-1.08-45.96-2.19v3c9.32-.7,18.67-.99,28.02-.87v-3c-11.01.08-22.01.16-33.02.24-1.95.01-1.91,2.86,0,3,9.02.64,18.06.99,27.1,1.04v-3c-8.17.3-16.34.02-24.47-.84l.4,2.95c5.4-1.64,10.95-2.47,16.59-2.49,1.99,0,1.86-2.76,0-3-8.05-1.05-16.15-1.71-24.26-1.99v3c6.84-.19,13.64.46,20.32,1.96v-2.89c-8.62,1.3-17.39,1.43-26.06.47l.4,2.95c7.59-1.45,15.27-2.31,22.99-2.59,1.93-.07,1.94-2.95,0-3-7.85-.21-15.7-.41-23.55-.62l.4,2.95c7.33-1.1,14.75-1.58,22.16-1.51,1.94.02,1.92-2.89,0-3-6.84-.38-13.68-.76-20.52-1.15l.4,2.95c8.24-1.12,16.58-1.44,24.89-1.02v-3c-8.9-.24-17.8-.48-26.69-.73v3c12.12-.04,24.24-.08,36.36-.12v-3c-11.12.12-22.25-.59-33.26-2.16l-.4,2.95c12.35-1.11,24.76-1.35,37.14-.73v-3c-14.23.06-28.45-.44-42.64-1.5v3c9.72-.57,19.44-1.15,29.16-1.72,1.94-.11,1.92-2.84,0-3-11.68-.98-23.37-1.97-35.05-2.95v3c14.87-.59,29.75-.75,44.62-.48,1.95.04,1.91-2.87,0-3-13.07-.89-26.14-1.78-39.21-2.67v3c10.17-.42,20.34-.84,30.51-1.26,1.94-.08,1.92-2.86,0-3-11.82-.87-23.64-1.75-35.46-2.62v3c8.82-.31,17.64-.62,26.46-.94,1.94-.07,1.92-2.88,0-3-8.61-.52-17.22-1.05-25.83-1.57v3c10.07.15,20.13.3,30.2.45v-3c-10.54-.14-21.06-.99-31.48-2.59v2.89c7.71-1.14,15.42-2.28,23.13-3.41,1.44-.21,1.42-2.65,0-2.89-8.49-1.43-16.97-2.85-25.46-4.28v2.89c5.31-.82,10.66-1.29,16.03-1.45,1.6-.05,2.14-2.71.4-2.95-4.68-.64-9.35-.29-13.85,1.18-1.66.54-1.27,2.79.4,2.95,18.3,1.69,36.66,3.4,54.6,7.59l-.36-2.74c-2.87,1.83-6.08,2.76-9.49,2.71-1.94-.03-1.91,2.88,0,3s3.7.23,5.55.35v-3c-10.21-.21-20.42-.42-30.62-.63v3c6.54-.13,13.08-.26,19.62-.39v-3c-4.56.51-9.03,1.44-13.4,2.83-1.27.41-1.58,2.68,0,2.89,5.58.76,11.19,1.27,16.82,1.49l-.4-2.95c-2.56.43-5.13.86-7.69,1.29-1.65.28-1.29,3.11.4,2.95,5.92-.59,11.84-1.17,17.76-1.76,1.9-.19,1.92-3.19,0-3-3.98.39-7.97.78-11.95,1.17-1.88.18-1.96,3.07,0,3,5.34-.18,10.69-.1,16.03.24v-3c-9.27.49-18.54.98-27.82,1.48-1.92.1-1.93,3.09,0,3,6.72-.33,13.4-1.25,19.96-2.78,1.73-.4,1.21-2.83-.4-2.95-7.72-.57-15.39-1.65-22.97-3.23l1.1,1.45c-.04-.41-.09-.18.23-.45.23-.2.56-.28.84-.37.87-.29,1.82-.38,2.72-.54,2.02-.36,4.04-.73,6.05-1.09,4.12-.74,8.23-1.48,12.35-2.22,1.68-.3,1.26-2.97-.4-2.95-7.49.1-14.94-.7-22.24-2.41v2.89c8.11-1.52,16.22-3.04,24.33-4.56,1.43-.27,1.43-2.62,0-2.89-3.85-.73-7.69-1.46-11.54-2.19v2.89c3.77-.92,7.55-1.84,11.32-2.76,1.75-.43,1.19-2.79-.4-2.95-2.83-.28-5.67,0-8.4.83-1.64.49-1.3,2.88.4,2.95,4.99.21,9.98.42,14.97.63v-3c-5.59.57-11.21.54-16.8-.07l1.5,1.5c-.07-1.08,1.24-1.63,2.08-2.01,1.44-.65,2.94-1.21,4.41-1.8,3.05-1.22,6.12-2.41,9.2-3.55,6.09-2.26,12.24-4.35,18.44-6.3,1-.31,1.56-1.74.66-2.51-3.89-3.31-9.12-2.12-13.62-.95-2.45.64-4.92,1.38-7.13,2.64-2.32,1.32-3.9,3.26-5.64,5.23-1.88,2.12-4.12,3.22-6.76,4.13-2.89.99-5.8,1.91-8.73,2.77-5.84,1.73-11.74,3.13-17.68,4.49-2.69.61-5.55,1.52-7.39,3.7s-2.39,4.86-1.19,7.38l1.3-2.26c-3.55-.22-7.02-.84-10.43-1.83l-.8,2.89c4.98.69,6.68,6.65,7.69,10.81,1.18,4.83,1.64,12.66-4.56,14.29-1.42.37-1.44,2.53,0,2.89,3.58.91,7.15,1.83,10.73,2.74l.4-2.95c-2.47-.24-4.73-1.21-6.71-2.68l-1.16,2.74c6.44,1.63,12.76,3.67,18.94,6.11l.4-2.95c-6.34-.39-12.69-.3-19.01.26-1.34.12-2.22,2.08-.76,2.8,6.5,3.18,13.32,5.6,20.38,7.18l.4-2.95c-3.29-.05-6.58-.1-9.87-.15-1.81-.03-1.88,2.35-.4,2.95,4.87,1.94,9.74,3.88,14.61,5.82l.4-2.95c-3.13.37-6.28.36-9.4-.12l-.4,2.95c19.72-1.43,39.45-2.87,59.17-4.3,2.82-.2,5.64-.41,8.45-.61,2.1-.16,4.17-.42,5.41-2.31.69-1.05-.25-2.14-1.3-2.26-11.39-1.31-22.82-2.36-34.26-3.14v3c7.39.16,14.87.38,21.88,3v-2.89c-8.58,1.52-17.1,3.34-25.56,5.44-.86.21-1.16,1.06-1.05,1.85.45,3.08,3.73,4.36,6.36,5.08,4.07,1.11,8.14,2.21,12.2,3.31v-2.89c-3.06.85-6.16,1.37-9.33,1.54-1.92.1-1.94,2.95,0,3,4.57.12,9.14.24,13.72.36,1.93.05,1.93-2.93,0-3-4.12-.16-8.22.35-12.18,1.51-1.51.44-1.33,2.38,0,2.89,3.65,1.41,7.3,2.81,10.95,4.22v-2.89c-9.14,1.3-18.36-.41-27.15-2.87-8.98-2.51-17.8-5.61-26.59-8.7-5.08-1.79-10.16-3.61-15.23-5.43-1.82-.65-2.6,2.24-.8,2.89,9.07,3.26,18.13,6.51,27.27,9.56s18.14,6.07,27.59,7.37c5.23.72,10.46.81,15.7.07,1.63-.23,1.2-2.43,0-2.89-3.65-1.41-7.3-2.81-10.95-4.22v2.89c3.72-1.09,7.51-1.55,11.38-1.4v-3c-4.57-.12-9.14-.24-13.72-.36v3c3.43-.18,6.82-.72,10.13-1.64,1.42-.4,1.43-2.5,0-2.89-3.43-.93-6.86-1.86-10.29-2.79-1.97-.53-5.81-.98-6.18-3.51l-1.05,1.85c8.46-2.1,16.98-3.92,25.56-5.44,1.6-.28,1.24-2.43,0-2.89-7.24-2.7-15.04-2.93-22.68-3.1-1.95-.04-1.91,2.87,0,3,11.44.78,22.87,1.83,34.26,3.14l-1.3-2.26c-.4.6-1.32.69-1.98.76-1.1.12-2.22.16-3.33.24l-6.96.51-14.17,1.03c-9.36.68-18.73,1.36-28.09,2.04-5.3.39-10.61.77-15.91,1.16-1.56.11-2.18,2.67-.4,2.95,3.39.52,6.78.63,10.2.23,1.7-.2,2.01-2.3.4-2.95-4.87-1.94-9.74-3.88-14.61-5.82l-.4,2.95c3.29.05,6.58.1,9.87.15,1.66.02,2.07-2.57.4-2.95-6.8-1.52-13.4-3.82-19.66-6.88l-.76,2.8c6.32-.57,12.67-.66,19.01-.26,1.82.11,1.86-2.37.4-2.95-6.18-2.44-12.5-4.48-18.94-6.11-1.74-.44-2.47,1.76-1.16,2.74,2.43,1.8,5.23,2.8,8.23,3.09,1.7.17,2.01-2.53.4-2.95-3.58-.91-7.15-1.83-10.73-2.74v2.89c3.07-.81,5.35-3.18,6.56-6.06,1.47-3.5,1.12-7.39.32-11.01-1.2-5.38-3.59-12.93-10-13.82-1.85-.26-2.71,2.34-.8,2.89,3.66,1.06,7.42,1.7,11.23,1.94,1.23.08,1.75-1.31,1.3-2.26-.89-1.87.57-4,2.12-4.98,2.03-1.3,4.53-1.65,6.84-2.17,5.29-1.17,10.55-2.53,15.74-4.08,2.56-.76,5.11-1.57,7.64-2.41,2.26-.76,4.6-1.53,6.54-2.96s3.22-3.37,4.88-5.04,3.69-2.66,5.87-3.39c2.29-.77,4.69-1.4,7.07-1.8,2.24-.38,4.9-.49,6.74,1.08l.66-2.51c-6.96,2.18-13.86,4.56-20.69,7.14-3.38,1.28-6.73,2.6-10.07,3.97-2.39.98-5.79,2.27-5.57,5.43.06.88.64,1.41,1.5,1.5,5.59.61,11.2.63,16.8.07,1.89-.19,1.96-2.92,0-3-4.99-.21-9.98-.42-14.97-.63l.4,2.95c2.49-.75,5.01-.98,7.6-.72l-.4-2.95c-3.77.92-7.55,1.84-11.32,2.76-1.39.34-1.47,2.61,0,2.89,3.85.73,7.69,1.46,11.54,2.19v-2.89c-8.11,1.52-16.22,3.04-24.33,4.56-1.47.27-1.39,2.57,0,2.89,7.55,1.77,15.28,2.62,23.04,2.51l-.4-2.95c-4.92.88-9.85,1.77-14.77,2.65-2.17.39-4.59.55-6.67,1.3-1.58.57-3.14,1.75-2.95,3.62.06.63.42,1.3,1.1,1.45,7.84,1.63,15.78,2.74,23.77,3.33l-.4-2.95c-6.3,1.46-12.7,2.36-19.16,2.67v3c9.27-.49,18.54-.98,27.82-1.48,1.93-.1,1.93-2.88,0-3-5.34-.34-10.68-.42-16.03-.24v3c3.98-.39,7.97-.78,11.95-1.17v-3c-5.92.59-11.84,1.17-17.76,1.76l.4,2.95c2.56-.43,5.13-.86,7.69-1.29,1.73-.29,1.22-2.88-.4-2.95-5.36-.21-10.71-.66-16.02-1.38v2.89c4.11-1.31,8.32-2.25,12.6-2.73,1.87-.21,1.98-3.04,0-3-6.54.13-13.08.26-19.62.39-1.93.04-1.93,2.96,0,3,10.21.21,20.42.42,30.62.63,1.94.04,1.91-2.88,0-3s-3.7-.23-5.55-.35v3c3.9.06,7.71-1.01,11-3.12,1.04-.66.95-2.44-.36-2.74-18.19-4.24-36.83-5.98-55.4-7.69l.4,2.95c3.95-1.3,8.13-1.75,12.26-1.18l.4-2.95c-5.64.17-11.25.7-16.82,1.56-1.44.22-1.42,2.65,0,2.89,8.49,1.43,16.97,2.85,25.46,4.28v-2.89c-7.71,1.14-15.42,2.28-23.13,3.41-1.44.21-1.43,2.67,0,2.89,10.69,1.64,21.46,2.55,32.27,2.7,1.93.03,1.93-2.97,0-3-10.07-.15-20.13-.3-30.2-.45-1.94-.03-1.91,2.88,0,3,8.61.52,17.22,1.05,25.83,1.57v-3c-8.82.31-17.64.62-26.46.94-1.95.07-1.91,2.86,0,3,11.82.87,23.64,1.75,35.46,2.62v-3c-10.17.42-20.34.84-30.51,1.26-1.94.08-1.92,2.87,0,3,13.07.89,26.14,1.78,39.21,2.67v-3c-14.88-.27-29.76-.11-44.62.48-1.95.08-1.91,2.84,0,3,11.68.98,23.37,1.97,35.05,2.95v-3c-9.72.57-19.44,1.15-29.16,1.72-1.94.11-1.92,2.86,0,3,14.19,1.07,28.41,1.57,42.64,1.5,1.94,0,1.92-2.9,0-3-12.38-.62-24.79-.38-37.14.73-1.54.14-2.2,2.69-.4,2.95,11.28,1.62,22.66,2.39,34.06,2.27,1.93-.02,1.93-3.01,0-3-12.12.04-24.24.08-36.36.12-1.93,0-1.93,2.95,0,3,8.9.24,17.8.48,26.69.73,1.94.05,1.92-2.9,0-3-8.59-.44-17.17-.04-25.68,1.12-1.75.24-1.2,2.86.4,2.95,6.84.38,13.68.76,20.52,1.15v-3c-7.69-.08-15.35.48-22.96,1.61-1.72.26-1.23,2.9.4,2.95,7.85.21,15.7.41,23.55.62v-3c-7.99.3-15.94,1.21-23.79,2.7-1.79.34-1.15,2.78.4,2.95,8.95.99,17.95.76,26.86-.58,1.49-.22,1.37-2.58,0-2.89-6.93-1.56-14.02-2.27-21.12-2.07-1.93.05-1.93,2.93,0,3,8.12.28,16.21.94,24.26,1.99v-3c-5.89.01-11.75.88-17.39,2.59-1.7.52-1.23,2.77.4,2.95,8.13.86,16.3,1.14,24.47.84,1.92-.07,1.94-2.99,0-3-9.04-.05-18.08-.4-27.1-1.04v3c11.01-.08,22.01-.16,33.02-.24,1.93-.01,1.93-2.98,0-3-9.35-.12-18.7.17-28.02.87-1.93.14-1.93,2.86,0,3,15.3,1.11,30.63,1.84,45.96,2.19v-3c-7.91-.04-15.82.2-23.71.71-1.92.13-1.94,2.91,0,3,15.85.71,31.74.62,47.58-.25,1.97-.11,1.88-2.77,0-3-12.57-1.55-25.21-2.33-37.88-2.36v3c14.98-.51,29.96-1.02,44.94-1.53,1.97-.07,1.88-2.79,0-3-20.33-2.29-40.67-4.58-61-6.87v3c12.14-.83,24.28-1.65,36.42-2.48.79-.05,1.53-.64,1.5-1.5-.1-2.85-2.78-4.18-5.27-4.68-3.72-.74-7.51-1.26-11.25-1.88-7.7-1.29-15.41-2.57-23.11-3.86l-.4,2.95c14.17-.92,28.34-1.85,42.51-2.77,1.58-.1,2.17-2.63.4-2.95-5.63-.99-11.3-1.66-17.01-1.97v3c12.83.03,25.66.06,38.49.09,1.98,0,1.87-2.78,0-3-20.2-2.34-40.4-4.69-60.6-7.03l.4,2.95c10.45-2.83,21.28-3.4,32.04-3.95,1.39-.07,2.17-2.09.76-2.8-3.43-1.72-7.14-2.41-10.92-2.79-4.08-.41-8.18-.64-12.26-.92-8.52-.59-17.04-1.09-25.57-1.52v3c12.59.61,25.18,1.22,37.78,1.83,1.94.09,1.91-2.86,0-3-8.77-.65-17.54-1.3-26.31-1.96v3c19.69.28,39.38.16,59.07-.36,1.61-.04,2.14-2.7.4-2.95-16.18-2.25-32.5-2.79-48.81-3.29v3c9.56-.07,19.12-.14,28.68-.21,1.97-.01,1.88-2.8,0-3-19.75-2.05-39.51-4.1-59.26-6.15v3c14.38.01,28.76.02,43.14.04,1.94,0,1.92-2.9,0-3-14.81-.75-29.61-1.51-44.42-2.26-1.94-.1-1.91,2.85,0,3,16.62,1.3,33.31,1.51,49.96.62,1.58-.08,2.16-2.69.4-2.95-8.41-1.23-16.82-2.47-25.23-3.7l-.4,2.95c18-.82,36-1.64,54-2.45,1.59-.07,2.15-2.68.4-2.95-13.59-2.04-27.36-1.95-40.91.28-1.45.24-1.41,2.62,0,2.89,12.66,2.42,25.44,4.13,38.29,5.12v-3c-16.2-.57-32.4-1.14-48.6-1.71v3c18.2.22,36.4.44,54.59.66,1.94.02,1.92-2.92,0-3-16.8-.7-33.59-1.39-50.39-2.09v3c12.98.12,25.96-.6,38.85-2.15,1.6-.19,2.14-2.43.4-2.95-4.83-1.43-9.66-2.86-14.5-4.29v2.89c18.96-4.93,38.73-1.82,58.03-3.64,1.54-.15,2.2-2.65.4-2.95-13.97-2.3-28.15-3-42.27-2-1.94.14-1.92,2.83,0,3,15.06,1.33,30.12,2.66,45.19,4v-3c-20.92-.63-41.84-1.45-62.75-2.45-5.97-.29-11.95-.59-17.92-.9l.4,2.95c3.78-.53,7.62-.52,11.4-.06v-3c-13.71.65-27.43,1.29-41.14,1.94-1.97.09-1.88,2.78,0,3,12.32,1.45,24.63,2.9,36.95,4.34v-3c-10.2.24-20.41.49-30.61.73-1.95.05-1.91,2.86,0,3,13.27.99,26.54,1.98,39.81,2.97v-3c-15-.2-29.99-.81-44.96-1.84v3c9.56.44,19.12,1.06,28.65,1.89,4.71.41,9.41.85,14.1,1.37,4.16.47,8.38,1.14,12.11,3.14l.36-2.74c-12.06,1.63-24.13,3.25-36.24,4.53s-23.89,2.33-35.85,2.41c-5.14.04-12.15-.94-13.62-6.9-.4-1.61-3.08-1.31-2.95.4.57,7.39,1.15,14.78,1.72,22.18.15,1.91,2.91,1.95,3,0,.16-3.5-.28-6.98-1.3-10.33-.48-1.58-2.98-1.34-2.95.4.16,8.02-.85,15.98-3.01,23.71l2.95.4c.23-7.34.38-14.9-2.3-21.86-.68-1.78-3.33-1.12-2.89.8,2.32,10.24,7.06,19.77,13.75,27.85.96,1.16,2.95-.09,2.51-1.46-2.94-9.11-5.88-18.22-8.83-27.33-.5-1.54-3.05-1.37-2.95.4.2,3.48.09,6.97-.41,10.42h2.89c-1.25-6.12-2.51-12.24-3.76-18.35-.34-1.65-3.02-1.29-2.95.4.34,7.93.34,15.86.01,23.79l2.8-.76c-3.26-7.52-7.33-14.65-12.16-21.27l-2.05,2.05c7.38,4.07,14.43,8.72,21.04,13.95l1.82-2.36c-8.27-4.99-16.72-9.67-25.33-14.02-1.31-.66-2.83.7-2.05,2.05,2.37,4.13,4.6,8.34,6.67,12.64,1.01,2.11,1.99,4.24,2.93,6.39.71,1.62,2.37,4.3,1.48,6.11h2.59c-1.17-1.54-3.06-2.34-4.95-1.59-1.09.44-1.43,1.58-.66,2.51,4.19,5.02,8.49,9.95,12.9,14.78l2.12-2.12c-6.67-7.26-13.03-14.79-19.06-22.59l-2.12,2.12c4.08,3.9,8.28,7.69,12.58,11.35,2.05,1.74,4.09,3.57,6.27,5.15,1.96,1.42,4.28,2.28,6.57,1.13.85-.43.97-1.72.3-2.36-7.95-7.5-16.31-14.55-25.03-21.14-1.54-1.16-3.04,1.44-1.51,2.59h0Z"/>
    <path class="cls-3" d="M94.51,278.14c14.57,3.08,29.34,5.2,44.19,6.35,1.95.15,1.88-2.78,0-3-12.85-1.49-25.71-2.97-38.56-4.46v3c15,.65,29.87,2.93,44.38,6.79v-2.89c-9.14,1.26-18.47.91-27.5-.96l-.8,2.89c7.58,1.06,15.21,1.43,22.86,1.05,1.6-.08,2.15-2.63.4-2.95-4.3-.79-8.61-1.58-12.91-2.37-1.8-.33-3.69-.52-5.44-1.08s-2.02-1.79-.78-3.23c1.35-1.57,3.14-2.83,4.71-4.17s3.26-2.78,4.89-4.17c3.39-2.89,6.77-5.77,10.16-8.66.49-.42.56-1.28.23-1.82-1.07-1.78-2.92-2.65-4.91-2.99-2.53-.43-5.15-.48-7.71-.66-5.75-.42-11.51-.83-17.26-1.25v3c10.06-1.32,20.2-1.75,30.33-1.28v-3c-8.54.56-17.06-.39-25.27-2.84v2.89c7.01-1.96,14.11-3.6,21.27-4.91,1.68-.31,1.27-2.98-.4-2.95-4.66.08-9.32-.01-13.97-.3-4.31-.27-8.79-.48-13.02-1.39-1.61-.35-3.29-.86-4.56-1.95-1.36-1.17-1.93-2.89-2.09-4.63-.18-2,.04-4.03.18-6.02.16-2.27.32-4.54.48-6.81.18-2.59.35-5.19.55-7.78.06-.74.47-3.62,1.63-3.31l.4-2.95c-3.28.1-6.55.2-9.83.3l.4,2.95c2.95-1.12,5.9-2.24,8.85-3.36l-1.16-2.74c-7.56,5.79-15.8,10.67-24.54,14.46-2.08.9-4.2,1.81-6.36,2.5-1.72.55-3.7,1.05-5.5.61-3.75-.92-2.93-4.97-.69-7.03,3.95-3.64,10.07-.29,13.93,1.79v-2.59c-3.25,1.74-6.81,2.7-10.49,2.83l1.3,2.26c.73-.99,1.69-1.71,2.78-2.26l-2.05-2.05c-.45.81-.9,1.62-1.35,2.42-.54.96.13,2.29,1.3,2.26,2.57-.08,5.27-.31,7.53-1.67,1.99-1.2,3.56-3.31,3.71-5.67.15-2.49-1.42-4.51-3.1-6.16s-3.54-3.03-5.46-4.34c-3.77-2.58-7.86-4.81-11.02-8.17-.68-.72-2-1.91-2.06-2.96-.05-.87.92-1.21,1.62-1.4,2.56-.72,5.52-.59,8.16-.7,6.85-.29,13.71-.12,20.53.47,1.68.15,2.05-2.61.4-2.95-4.71-.94-9.44-1.04-14.2-.34-.59.09-1.17.86-1.1,1.45.37,3.29,3.06,5,5.93,6.09,3.65,1.38,7.49,2.39,11.27,3.37,7.91,2.05,15.95,3.5,24.05,4.54,16.21,2.08,32.6,2.39,48.92,2.07,9.28-.18,18.56-.57,27.83-.97v-3c-9.34,1.03-18.74.27-27.79-2.26v2.89c12.15-2.76,24.6-3.93,37.06-3.53,1.97.06,1.87-2.78,0-3-4.49-.52-8.99-1.03-13.48-1.55v3c17.3-1.81,34.59-3.63,51.89-5.44l-.4-2.95c-1.94.48-3.88.96-5.81,1.43l.8,2.89c9.21-3.42,18.45-6.86,27.29-11.18,4.28-2.09,8.33-4.53,12.46-6.88,3.91-2.23,8.07-4.2,12.68-3.84l-1.45-1.9c-2.68,7.34-5.35,14.69-8.03,22.03-2.5,6.87-4.98,13.77-8.07,20.4-5.94,12.72-14.51,24.12-23.66,34.71-8.61,9.97-18.34,19.15-29.94,25.55-6.23,3.43-12.85,6.05-19.55,8.4-7,2.46-14.06,4.84-21.18,6.95-8.04,2.38-16.22,4.11-24.61,4.67-8.33.55-16.71.08-24.93-1.42-1.89-.34-2.7,2.55-.8,2.89,15.15,2.77,30.64,2.14,45.55-1.7,7.27-1.87,14.39-4.31,21.51-6.7s13.94-4.81,20.59-7.98c12.35-5.88,22.88-14.67,32.08-24.72,4.57-4.99,8.83-10.25,12.93-15.63,4.44-5.85,8.61-11.94,12.07-18.43,3.92-7.37,6.89-15.2,9.75-23.02,3.07-8.4,6.12-16.8,9.19-25.2.36-.99-.56-1.83-1.45-1.9-7.26-.57-13.46,3.91-19.45,7.33-6.83,3.9-14.04,7.08-21.35,9.96-4.12,1.63-8.27,3.17-12.42,4.71-1.78.66-1.11,3.36.8,2.89s3.88-.96,5.81-1.43c1.6-.39,1.31-3.13-.4-2.95-17.3,1.81-34.59,3.63-51.89,5.44-1.93.2-1.92,2.78,0,3,4.49.52,8.99,1.03,13.48,1.55v-3c-12.72-.42-25.45.82-37.86,3.63-1.48.33-1.38,2.51,0,2.89,9.28,2.6,19,3.42,28.59,2.37,1.87-.21,1.97-3.08,0-3-15.67.67-31.35,1.32-47.04.98-15.58-.33-31.19-1.64-46.43-4.97-4.3-.94-8.57-2.04-12.79-3.31-1.87-.56-3.82-1.07-5.61-1.86-1.23-.54-2.95-1.44-3.12-2.95l-1.1,1.45c4.18-.62,8.46-.49,12.6.34l.4-2.95c-6.09-.53-12.2-.72-18.3-.55-2.97.08-5.94.22-8.9.5-1.92.19-4.13.62-5.35,2.27-2.97,4,3.33,8.81,6.12,10.92,3.67,2.77,7.81,4.91,11.3,7.93,1.85,1.6,4.51,3.88,2.98,6.53s-5,2.91-7.75,2.99l1.3,2.26c.45-.81.9-1.62,1.35-2.42.76-1.35-.73-2.72-2.05-2.05-1.57.8-2.81,1.93-3.85,3.34-.68.92.24,2.29,1.3,2.26,4.22-.15,8.28-1.24,12.01-3.23.98-.52.97-2.07,0-2.59-4.52-2.44-10.4-5.38-15.49-2.79-3.45,1.75-6.11,6.24-4.41,10.04,2.03,4.52,7.7,4.1,11.61,2.82,5.27-1.72,10.4-4.18,15.28-6.78,5.67-3.02,11.07-6.52,16.17-10.42.6-.46.93-1.13.61-1.87-.27-.63-1.07-1.13-1.77-.87-2.95,1.12-5.9,2.24-8.85,3.36-1.49.56-1.41,3,.4,2.95,3.28-.1,6.55-.2,9.83-.3,1.66-.05,2.07-2.49.4-2.95-4.45-1.21-5.32,4.64-5.53,7.66-.38,5.33-.84,10.66-1.12,16-.22,4.3.54,8.72,4.57,11.06s9.09,2.33,13.46,2.72c6.19.55,12.4.76,18.61.65l-.4-2.95c-7.16,1.31-14.26,2.95-21.27,4.91-1.44.4-1.41,2.47,0,2.89,8.44,2.52,17.28,3.52,26.06,2.94,1.92-.13,1.94-2.91,0-3-10.13-.46-20.28-.03-30.33,1.28-1.88.25-1.97,2.86,0,3,5.1.37,10.19.74,15.29,1.11,2.47.18,4.93.34,7.4.54,1.59.13,3.69.26,4.61,1.78l.23-1.82c-3.89,3.31-7.77,6.63-11.66,9.94-1.88,1.6-3.76,3.21-5.64,4.81-1.6,1.36-3.45,2.8-4.04,4.92-1.29,4.62,3.96,5.71,7.22,6.31,4.94.91,9.88,1.81,14.82,2.72l.4-2.95c-7.36.37-14.76.08-22.06-.94-1.85-.26-2.73,2.49-.8,2.89,9.6,1.99,19.39,2.3,29.1.96,1.53-.21,1.33-2.54,0-2.89-14.76-3.93-29.92-6.24-45.18-6.9-1.97-.09-1.87,2.78,0,3,12.85,1.49,25.71,2.97,38.56,4.46v-3c-14.59-1.13-29.08-3.22-43.39-6.24-1.88-.4-2.69,2.49-.8,2.89h0Z"/>
    <path class="cls-3" d="M283.93,175.25c-1.52,15.43-8.22,30.21-18.75,41.58-.96,1.04-.03,3,1.46,2.51,6.9-2.29,11.02-8.53,13.43-15.06,1.41-3.8,2.4-7.75,3.5-11.64,1.17-4.15,2.34-8.31,3.52-12.46l-2.95-.4c-.6,8.44-1.81,16.66-6.34,23.97-2.29,3.7-4.97,7.17-7.52,10.69-2.7,3.73-5.4,7.46-8.1,11.19-3.09,4.26-6.17,8.52-9.26,12.78-.86,1.19.86,2.92,2.05,2.05,12.87-9.41,21.97-23.62,25.2-39.23.92-4.43,1.37-8.96,1.32-13.49-.02-1.93-3.02-1.93-3,0,.16,15.15-5.57,30.18-15.61,41.52-2.83,3.19-5.98,6.1-9.43,8.62l2.05,2.05c5.55-7.66,11.1-15.31,16.64-22.97,5.16-7.12,10.71-13.99,12.95-22.66,1.23-4.74,1.69-9.65,2.04-14.52.12-1.72-2.5-1.99-2.95-.4-2.1,7.46-3.96,15.05-6.41,22.4-2.02,6.06-5.47,12.52-11.93,14.66l1.46,2.51c11.11-11.99,18.03-27.44,19.63-43.7.19-1.92-2.81-1.91-3,0h0Z"/>
    <path class="cls-3" d="M272.55,185.2c-7.74,14.62-14.56,29.71-20.43,45.17-.53,1.39,1.55,2.56,2.51,1.46,9.35-10.82,12.96-24.85,19.02-37.5,1.73-3.6,3.67-7.09,5.98-10.35l-2.74-1.16c-2.18,7.14-6.2,13.54-11.64,18.64l2.56,1.06c.06-10.27,3.47-20.26,9.64-28.46l-2.74-.36c1.46,9.44-1.06,19.21-6.68,26.89-1.15,1.57,1.45,3.04,2.59,1.51,5.02-6.71,10.04-13.42,15.05-20.14l-2.59-1.51c-3.22,5.64-7.2,10.77-11.86,15.3l2.51,1.46c2.6-6.89,5.21-13.78,7.81-20.67l-2.89-.8c-2.5,8.48-12.84,9.61-20.22,10.12-9.78.68-19.56,1.35-29.34,2.03l1.06,2.56c1.9-1.69,4.49-2.24,6.89-2.86,2.85-.74,5.71-1.44,8.58-2.1,5.74-1.32,11.51-2.47,17.32-3.46,1.67-.29,1.28-3.03-.4-2.95-10.92.52-21.71,2.74-31.93,6.64-1.77.68-1.11,3.37.8,2.89,12.07-3.03,24.33-6.05,36.87-5.32l-1.06-2.56c-7.26,6.46-14.52,12.92-21.79,19.38-.92.82-.23,2.69,1.06,2.56,9.57-.99,18.5-4.5,27.34-8.08l-1.16-2.74c-6.48,3.79-12.46,8.38-17.79,13.66-1.13,1.12.05,2.77,1.46,2.51,5.66-1.04,11.35-1.93,17.07-2.64l-1.45-1.9c-.43,2.61-1.67,4.81-3.69,6.53l2.51,1.46c.72-2.71,1.44-5.41,2.16-8.12.37-1.38-1.49-2.62-2.51-1.46-5.63,6.44-11.62,13.31-19.83,16.43l1.69,2.2c6.64-8.98,13.29-17.95,19.93-26.93.85-1.14-.55-2.44-1.69-2.2-15.03,3.14-29.56,8.14-44.05,13.14-1.81.62-1.09,3.41.8,2.89,10.11-2.76,20.22-5.53,30.33-8.29,1.62-.44,1.31-2.97-.4-2.95-13.83.21-27.66.41-41.49.62l.4,2.95c7.35-2.64,15.03-4.13,22.83-4.4l-.4-2.95c-12.32,2.6-24.5,5.79-36.5,9.57-1.57.5-1.35,2.98.4,2.95,12.14-.21,24.28-.42,36.42-.63l-.4-2.95c-15.06,2.74-30.43,3.56-45.7,2.49l.76,2.8c3.85-1.95,8.12-2.79,12.34-3.49,4.49-.74,8.99-1.44,13.49-2.16,9.29-1.49,18.58-2.97,27.87-4.46,1.66-.27,1.29-3.09-.4-2.95-15.72,1.35-31.28,4.21-46.45,8.58-1.56.45-1.34,3.11.4,2.95,15.12-1.39,30.11-3.92,44.84-7.61,1.61-.4,1.32-3.07-.4-2.95-9.96.69-19.92,1.38-29.89,2.07l.4,2.95c10.43-2.92,21.05-5.13,31.78-6.58,1.87-.25,1.93-3.22,0-3-11.66,1.33-23.14,3.88-34.25,7.68-1.87.64-1.08,3.16.8,2.89,10.09-1.46,20.19-2.92,30.28-4.37,1.91-.28,1.09-3.16-.8-2.89-15.37,2.18-30.76,5.23-45.19,11.08-4.08,1.65-8.06,3.51-11.93,5.61-1.57.86-.44,3.04,1.16,2.74,16.68-3.08,33.51-5.22,50.42-6.43,1.9-.14,1.95-3.06,0-3-21.49.71-42.96,1.66-64.43,2.86-6.05.34-12.1.69-18.15,1.07-1.91.12-1.94,3.1,0,3,19.43-1,38.85-2.3,58.25-3.92,5.53-.46,11.06-.94,16.58-1.45,1.91-.18,1.95-2.88,0-3-19.18-1.19-38.49.51-57.17,5.01-1.69.41-1.25,2.88.4,2.95,13.64.54,27.29.06,40.92-.42v-3c-19.92,2.61-39.92,5.24-59.34,10.58-1.6.44-1.33,3.02.4,2.95,20.6-.87,41.2-1.75,61.79-2.62,5.81-.25,11.63-.49,17.44-.74,1.92-.08,1.94-3.04,0-3-11.73.23-23.46.56-35.18.99-11.57.43-23.18.74-34.72,1.65-6.18.48-12.37,1.35-18.25,3.39-1.5.52-1.39,3.09.4,2.95,20.02-1.62,40.04-3.23,60.06-4.85,1.9-.15,1.95-3.05,0-3-18.74.49-37.38,3.69-55.2,9.5-1.65.54-1.28,2.8.4,2.95,5.37.46,10.74.12,16.1-.18s10.77-.6,16.15-.9c10.68-.6,21.37-1.2,32.05-1.79,6.05-.34,12.09-.68,18.14-1.01v-3c-22.9,1.74-45.85,3.51-68.51,7.38-6.38,1.09-12.73,2.36-19.04,3.83-1.7.4-1.24,2.87.4,2.95,19.18.94,38.39.61,57.58,0,5.46-.18,10.92-.38,16.38-.58v-3c-17.37.97-34.78,1.96-51.97,4.77-4.93.81-9.84,1.77-14.7,2.92-1.66.39-1.28,2.94.4,2.95,17.86.02,35.72.03,53.59.05v-3c-16.21,1.78-32.43,3.56-48.64,5.34-1.89.21-1.97,2.91,0,3,18.12.85,36.32,1.72,54.14,5.33v-2.89c-16.64,2.32-33.28,4.64-49.91,6.95-4.78.67-9.55,1.33-14.33,2-1.74.24-1.21,2.87.4,2.95,10.13.48,20.26.97,30.39,1.45l-.4-2.95c-13.18,1.98-26.36,3.96-39.55,5.94-1.71.26-1.24,2.92.4,2.95,12.33.2,24.66.4,36.98.6l-.4-2.95c-10.02,1.55-20.06,3.13-29.77,6.12-1.38.42-1.48,2.52,0,2.89,6.87,1.75,13.74,3.5,20.62,5.25v-2.89c-6.24,2.46-12.67,4.35-19.25,5.64-1.72.34-1.23,2.88.4,2.95,5.43.24,10.86.48,16.28.71v-3c-5.23.59-10.45,1.17-15.68,1.76l.4,2.95c5.16-1.02,10.32-2.05,15.48-3.07,1.76-.35,1.18-2.81-.4-2.95-4.65-.39-9.29-.15-13.89.63-1.42.24-1.45,2.68,0,2.89.89.13,1.79.27,2.68.4v-2.89c-3.88,1.57-8.06,2.09-12.19,1.35l.36,2.74c7.61-3.26,15.38-6.11,23.28-8.57,1.67-.52,1.27-2.81-.4-2.95-8.98-.75-18-.26-26.85,1.39-1.71.32-1.24,2.91.4,2.95,7.2.15,14.4.09,21.6-.19,1.93-.07,1.93-2.93,0-3-8.96-.32-17.93.07-26.82,1.17-1.86.23-1.99,3.02,0,3,7.7-.08,15.36-1.18,22.76-3.3,1.69-.48,1.25-2.81-.4-2.95-8.57-.69-17.13-1.39-25.7-2.08l.4,2.95c10.2-4.19,20.41-8.37,30.61-12.56,1.19-.49,1.64-2.61,0-2.89-7.84-1.34-15.69-2.68-23.53-4.02v2.89c8.8-2.6,17.87-4.05,27.05-4.31,1.95-.06,1.91-2.85,0-3-9.22-.71-18.47-.26-27.59,1.28-1.92.32-1.07,3.15.8,2.89,11.57-1.6,23.15-3.2,34.72-4.8,1.72-.24,1.23-2.9-.4-2.95-9.89-.27-19.78-.54-29.66-.82l.4,2.95c11.31-1.97,22.69-3.55,34.11-4.72,1.88-.19,1.97-3.02,0-3-12.16.09-24.32.19-36.47.28l.4,2.95c13.6-2.01,27.21-4.03,40.81-6.04.73-.11,1.16-.99,1.07-1.65-.11-.79-.72-1.22-1.47-1.3-7.15-.81-14.3-1.62-21.44-2.42-3.53-.4-7.07-.77-10.6-1.2-2.14-.26-4.82-.66-5.78-2.87l-.9,2.2c9.3-3.65,18.91-6.43,28.73-8.31,1.49-.28,1.37-2.54,0-2.89-9.21-2.4-18.75-1.62-28.11-.75-1.89.18-1.95,3.13,0,3,8.62-.56,17.18-1.82,25.59-3.79,1.71-.4,1.24-2.86-.4-2.95-7.95-.4-15.91-.81-23.86-1.21l.4,2.95c4.62-.72,9.24-1.44,13.85-2.17,1.8-.28,1.15-2.79-.4-2.95-5.39-.55-10.81-.6-16.21-.15l.4,2.95c6.54-1.31,13.3-1.49,19.9-.5v-2.89c-8.06,2.11-17.27,4.94-21.47,12.82-.25.46-.3,1.06,0,1.51,3.23,4.95,9.4,5.66,14.83,5.88,7.64.31,15.13,1.05,22.59,2.77v-2.89c-10.18,2.91-20.36,5.87-30.08,10.14-1.69.74-.37,2.97,1.16,2.74,11.38-1.71,22.88-2.5,34.39-2.41l-.76-2.8c-2.78,2.11-5.56,4.21-8.34,6.32-1.12.85-.86,2.79.76,2.8,5.47.01,10.93.03,16.4.04v-3c-7.6.82-15.07,2.4-22.34,4.77-1.56.51-1.35,2.97.4,2.95,5.13-.06,10.27-.11,15.4-.17l-.76-2.8c-3.15,2.31-6.18,4.8-9.02,7.48-2.25,2.13-5.45,5.07-3.67,8.48,1.5,2.87,5.46,3.82,8.29,4.69,3.87,1.19,7.84,1.97,11.87,2.43l-.4-2.95c-6.19,1.62-12.38,3.23-18.56,4.85l.8,2.89c6.12-2.35,12.43-4.14,18.87-5.35l-.8-2.89c-6.32,1.39-12.51,3.27-18.53,5.63-1.47.57-1.42,3.01.4,2.95,3.37-.12,6.75-.24,10.12-.36l-.4-2.95c-5.34,1.61-10.22,4.29-14.47,7.89-1.03.87-.16,2.55,1.06,2.56,5.53.06,11.03-.55,16.42-1.79,1.9-.44,1.08-3.23-.8-2.89-5.9,1.05-11.8,2.1-17.7,3.15l1.16,2.74c7.05-3.14,14.51-5.29,22.13-6.47,1.65-.26,1.28-3.16-.4-2.95-5.49.69-10.88,1.88-16.13,3.64-1.82.61-1.08,3.42.8,2.89,8.98-2.54,17.8-5.61,26.41-9.21,1.5-.62,1.41-2.88-.4-2.95-5.5-.21-10.99,1.48-15.38,4.81-1.54,1.16-.27,3.4,1.51,2.59,12.15-5.49,24.05-11.5,35.68-18.01,1.72-.96.21-3.37-1.51-2.59-4.8,2.16-9.39,4.74-13.73,7.73-1.57,1.08-.18,3.56,1.51,2.59,9.45-5.41,18.36-11.72,26.64-18.8,1.28-1.1-.41-3.32-1.82-2.36-7.64,5.26-14.68,11.33-20.98,18.14-1.14,1.24.3,3.21,1.82,2.36,6.23-3.52,12.2-7.47,17.87-11.84,1.49-1.15.25-3.52-1.51-2.59-12.89,6.79-25.23,14.58-36.9,23.29-1.3.97-.6,3.18,1.16,2.74,8.84-2.21,17.12-6.14,25.14-10.4,3.74-1.99,7.54-3.93,11.12-6.2,3.33-2.11,6.39-4.65,8.45-8.06.45-.74.12-1.59-.54-2.05-3.53-2.51-8.45,1.16-11.46,2.98-3.98,2.41-7.74,5.16-11.28,8.18-1.28,1.1.41,3.32,1.82,2.36,10.52-7.19,20.1-15.69,28.45-25.32,1.26-1.45-.69-3.44-2.12-2.12-4.36,4.03-9.05,7.67-14.03,10.9l1.82,2.36c5.69-6.34,11.39-12.68,17.08-19.02,1.08-1.21-.33-3.35-1.82-2.36-7.19,4.77-13.67,10.53-19.22,17.14-1.23,1.46.83,3.58,2.12,2.12,6.16-6.99,12.31-13.98,18.47-20.97l-2.51-1.46c-1.85,4.83-3.69,9.67-5.54,14.5-.63,1.66,1.86,2.51,2.74,1.16,2.15-3.28,4.29-6.55,6.44-9.83.99-1.51-1.12-2.84-2.36-1.82-5.51,4.59-11.02,9.18-16.53,13.77-1.3,1.08.41,3.32,1.82,2.36,7.25-4.98,14.75-9.58,22.48-13.78,1.72-.94.21-3.38-1.51-2.59-10.6,4.88-20.95,10.31-30.99,16.26l1.82,2.36c6.36-4.97,12.72-9.95,19.08-14.92l-2.12-2.12c-9.1,8.92-18.94,17.06-29.41,24.31-1.57,1.08-.16,3.61,1.51,2.59,4.72-2.87,9.21-6.07,13.49-9.56,1.41-1.15-.39-3.03-1.82-2.36-8.17,3.85-15.81,8.68-22.83,14.35-1.18.95.09,2.95,1.46,2.51,5.26-1.71,10.28-4.06,14.95-7.02,1.39-.88.53-3.25-1.16-2.74-12.72,3.87-25.04,9-36.75,15.29-1.71.92-.21,3.43,1.51,2.59,3.47-1.69,6.94-3.38,10.4-5.08l-1.51-2.59-17.43,8.75c-1.76.88-.21,3.33,1.51,2.59,6.07-2.59,12.15-5.18,18.22-7.77l-1.51-2.59c-4.04,2.02-8.08,4.05-12.12,6.07-1.36.68-.68,2.81.76,2.8,2.1-.01,4.07-.55,5.89-1.6,1.58-.91.43-2.98-1.16-2.74-7.39,1.1-14.87,1.48-22.33,1.2l.76,2.8c5.46-3.64,11.51-6.17,17.94-7.49l-.8-2.89c-4.1,1.17-8.2,2.34-12.31,3.51-1.87.53-1.08,3.28.8,2.89,11.69-2.4,23-6.43,33.59-11.94,1.44-.75.6-2.67-.76-2.8-8.9-.85-17.94,1.3-25.52,6.03-1.51.94-.48,3.02,1.16,2.74,8.28-1.39,16.56-2.78,24.84-4.17l-.8-2.89c-8.84,2.22-17.93,3.11-27.04,2.68l.4,2.95c7.93-2.98,15.85-5.96,23.78-8.94,1.48-.55,1.41-3.04-.4-2.95-5.6.3-11.11,1.4-16.38,3.3-1.82.66-1.11,3.25.8,2.89,2.09-.39,4.87-1.01,6.78.26,1.08.72,2.12,2.58,1.07,3.72-.79.85-.32,2.73,1.06,2.56,6.31-.79,12.39-2.43,18.24-4.92l-1.51-2.59c-4.86,2.18-9.72,4.37-14.58,6.55-1.58.71-.45,3.18,1.16,2.74,1.71-.47,3.37-.42,5.06.13l-1.1-1.45c0,2.26-.63,4.32-1.86,6.22-.91,1.4,1.3,3.18,2.36,1.82,7.13-9.23,14.27-18.46,21.4-27.68,1.19-1.54-.58-3.31-2.12-2.12-6.68,5.18-13.14,10.64-19.36,16.36-1.45,1.33.65,3.31,2.12,2.12,4-3.23,8-6.46,12.01-9.69,1.31-1.06-.42-3.33-1.82-2.36-7.29,5.1-13.79,11.24-19.24,18.27-1.15,1.49.67,3.48,2.12,2.12,13.14-12.25,24.52-26.35,33.72-41.78l-2.59-1.51c-3.06,5.46-6.53,10.69-10.43,15.6-1.17,1.47.74,3.54,2.12,2.12,7.73-7.93,15.28-16.03,22.66-24.29l-2.36-1.82c-5.07,6.69-10.15,13.38-15.22,20.07-1.1,1.45,1.15,2.83,2.36,1.82,5.72-4.78,11.61-9.35,17.67-13.69l-1.82-2.36c-2.87,3.71-5.74,7.43-8.61,11.14-1.14,1.48.78,3.59,2.12,2.12,4.61-5.05,9.43-9.91,14.44-14.56l-2.12-2.12c-5.61,6.07-11.58,11.81-17.87,17.17-1.49,1.27.64,3.29,2.12,2.12,4.26-3.37,8.52-6.74,12.78-10.11l-2.12-2.12c-7.57,8.22-16.01,15.6-25.17,22l1.82,2.36c7.7-9.81,15.09-19.85,22.15-30.13.99-1.44-1.16-2.97-2.36-1.82-7.15,6.91-14.31,13.82-21.46,20.73l2.12,2.12c6.51-7.87,12.38-16.26,17.52-25.09.84-1.44-1.18-3.1-2.36-1.82-7.63,8.34-15.27,16.68-22.9,25.02l2.12,2.12c4.49-5.2,8.62-10.7,12.36-16.46.78-1.2-.83-2.96-2.05-2.05-7.73,5.77-15.45,11.54-23.18,17.31l1.82,2.36c5.98-5.45,11.96-10.9,17.94-16.34l-2.12-2.12c-5.59,5.91-11.17,11.81-16.76,17.72l2.12,2.12c4.47-5.54,10.22-9.97,16.8-12.73l-1.46-2.51c-3.72,4.45-8.45,7.99-13.85,10.16l1.69,2.2c3.63-5.59,8.06-10.59,13.16-14.88,1.29-1.09-.41-3.31-1.82-2.36-7.08,4.8-13.25,10.72-18.37,17.56-.65.87.22,2.37,1.3,2.26,5.84-.62,11.44-2.29,16.65-5.01,1.25-.65.75-2.99-.76-2.8-9.38,1.2-18.67,2.99-27.81,5.43-1.58.42-1.33,3.12.4,2.95,7.24-.73,14.49-1.46,21.73-2.19l-.4-2.95c-3.53.83-7.15-.5-9.44-3.26v2.12c3.67-4.25,7.49-8.37,11.45-12.35.95-.96.21-2.49-1.06-2.56-6.92-.38-13.8,1.09-20,4.18-1.49.74-.56,2.63.76,2.8,5.84.73,11.7.63,17.52-.22,1.67-.24,1.28-3.05-.4-2.95-9.3.55-18.6,1.1-27.9,1.65l.4,2.95c5.75-1.69,11.49-3.38,17.24-5.07,1.63-.48,1.3-2.91-.4-2.95-4.37-.11-8.73-.21-13.1-.32l.4,2.95c5.16-2.18,10.59-3.66,16.16-4.3l-.76-2.8c-2.27,1.26-4.68,2.11-7.23,2.59l.8,2.89c6.41-2.66,12.75-5.49,19-8.49,2.88-1.39,5.82-2.73,8.6-4.32,2.4-1.37,4.61-3.09,5.96-5.54.48-.86.04-1.92-.9-2.2-6.32-1.93-13.19-1.69-19.34.73-1.43.56-1.43,3.14.4,2.95,6.3-.65,12.64-.77,18.96-.35l-.4-2.95c-4.55,1.66-9.29,2.26-14.11,1.8l.4,2.95c6.97-2.69,14.15-4.74,21.49-6.13l-1.16-2.74c-3.37,1.6-6.73,3.2-10.1,4.81-1.52.72-.45,3.32,1.16,2.74,5.84-2.11,11.94-3.12,18.15-2.98l-1.3-2.26c-3.15,4.33-8.53,6.53-13.8,5.99l1.06,2.56c3.66-3.56,8.44-5.87,13.53-6.41l-.76-2.8c-4.52,3.25-9.03,6.5-13.55,9.75-1.26.9-.55,3.43,1.16,2.74,4.21-1.7,8.62-2.89,13.13-3.43l-1.45-1.9c-.36,1.82-1.06,3.41-2.14,4.91-.86,1.2.86,2.91,2.05,2.05,3.28-2.37,6.34-5.01,9.13-7.95l-2.36-1.82c-1.22,2.52-2.44,5.05-3.66,7.57l2.74,1.16c.4-2.78.8-5.56,1.2-8.33l-2.95-.4c.3,3.65-1.33,7.21-4.42,9.22l2.26,1.3c-.78-6.82-.47-13.7.98-20.41l-2.95-.4c-.86,7-2.41,13.9-4.58,20.61-.47,1.45,1.48,2.49,2.51,1.46,4.98-5,8.68-11.11,10.84-17.82l-2.89-.8c-.77,2.58-1.54,5.16-2.31,7.74-.41,1.39,1.5,2.6,2.51,1.46,3.21-3.65,6.12-7.54,8.69-11.66.64-1.03-.45-2.71-1.69-2.2-2.09.85-4.18,1.69-6.27,2.54l1.69,2.2c2.33-4.15,4.99-8.09,7.98-11.79.82-1.01.09-3.12-1.46-2.51-6.17,2.45-12.25,5.12-18.23,8.01-1.52.73-.45,3.3,1.16,2.74,6.5-2.25,13-4.5,19.5-6.75,1.82-.63,1.1-3.29-.8-2.89-4.36.92-8.65,2.08-12.87,3.48l1.16,2.74c3.12-1.44,6.49-2.28,9.91-2.51l-.4-2.95c-13.43,3.83-26.87,7.66-40.3,11.49-1.33.38-1.52,2.63,0,2.89,3.31.57,6.68-.1,9.39-2.13,1.18-.88.81-2.7-.76-2.8-8.94-.57-17.87-1.14-26.81-1.71l.4,2.95c5.82-2.11,11.82-3.63,17.94-4.57,1.65-.25,1.28-3.14-.4-2.95-3.01.35-6.01.7-9.02,1.04v3c15.82-2.11,31.69-4.21,47.23-7.95,4.4-1.06,8.77-2.26,13.1-3.61l-1.46-2.51c-9.14,7.9-19.1,14.8-29.68,20.61-1.69.93-.18,3.52,1.51,2.59,10.81-5.93,20.96-13.01,30.29-21.08,1.14-.99-.07-2.94-1.46-2.51-19.35,6.05-39.49,8.78-59.53,11.45-1.87.25-1.93,3.22,0,3,3.01-.35,6.01-.7,9.02-1.04l-.4-2.95c-6.12.93-12.12,2.46-17.94,4.57-1.59.58-1.33,2.84.4,2.95,8.94.57,17.87,1.14,26.81,1.71l-.76-2.8c-2.04,1.53-4.53,2.27-7.07,1.83v2.89c13.43-3.83,26.87-7.66,40.3-11.49,1.58-.45,1.34-3.06-.4-2.95-3.99.27-7.8,1.25-11.43,2.92-1.54.71-.45,3.28,1.16,2.74,4.22-1.4,8.52-2.56,12.87-3.48l-.8-2.89c-6.5,2.25-13,4.5-19.5,6.75l1.16,2.74c5.75-2.78,11.59-5.35,17.52-7.71l-1.46-2.51c-3.16,3.89-5.99,8.02-8.45,12.39-.58,1.03.41,2.72,1.69,2.2,2.09-.85,4.18-1.69,6.27-2.54l-1.69-2.2c-2.44,3.91-5.18,7.59-8.22,11.05l2.51,1.46c.77-2.58,1.54-5.16,2.31-7.74.55-1.86-2.3-2.63-2.89-.8-2,6.23-5.45,11.87-10.07,16.5l2.51,1.46c2.25-6.98,3.79-14.13,4.68-21.41.2-1.68-2.59-2.04-2.95-.4-1.5,6.97-1.89,14.12-1.08,21.21.12,1.05,1.21,1.98,2.26,1.3,3.93-2.56,6.29-7.11,5.91-11.81-.13-1.55-2.69-2.19-2.95-.4-.4,2.78-.8,5.56-1.2,8.33-.22,1.52,1.93,2.84,2.74,1.16,1.22-2.52,2.44-5.05,3.66-7.57.7-1.46-1.12-3.13-2.36-1.82-2.61,2.75-5.44,5.26-8.52,7.48l2.05,2.05c1.22-1.68,2.04-3.59,2.44-5.63.17-.85-.4-2.02-1.45-1.9-4.79.58-9.44,1.72-13.92,3.53l1.16,2.74c4.52-3.25,9.03-6.5,13.55-9.75,1.06-.77.88-2.97-.76-2.8-5.91.63-11.38,3.14-15.65,7.29-1.01.98-.16,2.43,1.06,2.56,6.38.66,12.65-2.33,16.39-7.47.7-.96-.25-2.23-1.3-2.26-6.45-.14-12.88.9-18.95,3.09l1.16,2.74c3.37-1.6,6.73-3.2,10.1-4.81,1.63-.77.41-3.04-1.16-2.74-7.34,1.39-14.52,3.44-21.49,6.13-1.59.61-1.32,2.78.4,2.95,5.05.48,10.14-.18,14.9-1.91,1.59-.58,1.33-2.83-.4-2.95-6.32-.42-12.65-.31-18.96.35l.4,2.95c5.7-2.24,11.89-2.51,17.75-.73l-.9-2.2c-1.24,2.24-3.35,3.64-5.55,4.83-2.73,1.48-5.56,2.81-8.37,4.15-5.88,2.81-11.83,5.48-17.85,7.98-1.76.73-1.14,3.26.8,2.89,2.79-.53,5.46-1.52,7.94-2.89,1.23-.68.76-2.97-.76-2.8-5.85.68-11.53,2.12-16.95,4.41-1.48.62-1.42,2.9.4,2.95,4.37.11,8.73.21,13.1.32l-.4-2.95c-5.75,1.69-11.49,3.38-17.24,5.07-1.57.46-1.34,3.05.4,2.95,9.3-.55,18.6-1.1,27.9-1.65l-.4-2.95c-5.54.8-11.17.81-16.72.11l.76,2.8c5.73-2.86,12.09-4.12,18.48-3.77l-1.06-2.56c-3.96,3.98-7.78,8.1-11.45,12.35-.57.66-.55,1.46,0,2.12,2.98,3.58,7.86,5.09,12.36,4.04,1.61-.38,1.31-3.12-.4-2.95-7.24.73-14.49,1.46-21.73,2.19l.4,2.95c8.88-2.36,17.9-4.16,27.01-5.32l-.76-2.8c-4.71,2.46-9.85,4.04-15.13,4.6l1.3,2.26c4.8-6.41,10.67-11.99,17.29-16.49l-1.82-2.36c-5.29,4.46-9.87,9.69-13.63,15.49-.67,1.03.46,2.7,1.69,2.2,5.88-2.37,11.09-6.06,15.17-10.93.84-1,.07-3.15-1.46-2.51-7.06,2.96-13.31,7.53-18.12,13.5-1.19,1.47.77,3.55,2.12,2.12,5.59-5.91,11.17-11.81,16.76-17.72,1.33-1.41-.7-3.42-2.12-2.12-5.98,5.45-11.96,10.9-17.94,16.34-1.23,1.12.44,3.39,1.82,2.36,7.73-5.77,15.45-11.54,23.18-17.31l-2.05-2.05c-3.6,5.55-7.57,10.84-11.89,15.85-1.25,1.45.81,3.56,2.12,2.12,7.63-8.34,15.27-16.68,22.9-25.02l-2.36-1.82c-5.01,8.61-10.7,16.81-17.05,24.49-1.21,1.46.71,3.49,2.12,2.12,7.15-6.91,14.31-13.82,21.46-20.73l-2.36-1.82c-6.92,10.06-14.15,19.91-21.68,29.52-.95,1.21.29,3.42,1.82,2.36,9.37-6.54,18.03-14.06,25.78-22.47,1.34-1.45-.64-3.3-2.12-2.12-4.26,3.37-8.52,6.74-12.78,10.11l2.12,2.12c6.29-5.36,12.26-11.1,17.87-17.17,1.31-1.42-.7-3.44-2.12-2.12-5.01,4.65-9.83,9.51-14.44,14.56l2.12,2.12c2.87-3.71,5.74-7.43,8.61-11.14.93-1.21-.29-3.45-1.82-2.36-6.27,4.49-12.37,9.21-18.28,14.16l2.36,1.82c5.07-6.69,10.15-13.38,15.22-20.07,1.03-1.35-1.23-3.08-2.36-1.82-7.37,8.26-14.93,16.36-22.66,24.29l2.12,2.12c4.05-5.11,7.71-10.51,10.89-16.2.94-1.69-1.6-3.17-2.59-1.51-9.08,15.22-20.28,29.09-33.25,41.17l2.12,2.12c5.29-6.82,11.56-12.85,18.64-17.8l-1.82-2.36c-4,3.23-8,6.46-12.01,9.69l2.12,2.12c6.22-5.72,12.68-11.18,19.36-16.36l-2.12-2.12c-7.13,9.23-14.27,18.46-21.4,27.68l2.36,1.82c1.5-2.32,2.26-4.97,2.27-7.73,0-.68-.47-1.24-1.1-1.45-2.18-.7-4.45-.73-6.65-.13l1.16,2.74c4.86-2.18,9.72-4.37,14.58-6.55,1.77-.8.23-3.33-1.51-2.59-5.32,2.27-10.99,3.79-16.73,4.51l1.06,2.56c2.07-2.24,1.43-5.6-.64-7.62-2.68-2.62-6.8-2-10.13-1.38l.8,2.89c5.02-1.82,10.25-2.91,15.58-3.2l-.4-2.95c-7.93,2.98-15.85,5.96-23.78,8.94-1.56.59-1.36,2.86.4,2.95,9.36.44,18.75-.51,27.84-2.79,1.91-.48,1.07-3.21-.8-2.89-8.28,1.39-16.56,2.78-24.84,4.17l1.16,2.74c7.18-4.47,15.6-6.42,24.01-5.62l-.76-2.8c-10.37,5.39-21.43,9.29-32.88,11.63l.8,2.89c4.1-1.17,8.2-2.34,12.31-3.51,1.87-.53,1.08-3.28-.8-2.89-6.66,1.37-13.01,4.02-18.66,7.79-1.23.82-.77,2.74.76,2.8,7.74.29,15.47-.17,23.13-1.31l-1.16-2.74c-1.37.79-2.8,1.18-4.38,1.19l.76,2.8c4.04-2.02,8.08-4.05,12.12-6.07,1.76-.88.21-3.33-1.51-2.59-6.07,2.59-12.15,5.18-18.22,7.77l1.51,2.59c5.81-2.92,11.62-5.83,17.43-8.75,1.73-.87.21-3.43-1.51-2.59-3.47,1.69-6.94,3.38-10.4,5.08l1.51,2.59c11.49-6.18,23.55-11.2,36.03-14.99l-1.16-2.74c-4.46,2.82-9.22,5.08-14.24,6.71l1.46,2.51c6.82-5.5,14.3-10.14,22.23-13.88l-1.82-2.36c-4.08,3.33-8.39,6.35-12.88,9.09l1.51,2.59c10.68-7.4,20.74-15.69,30.02-24.78,1.42-1.39-.64-3.28-2.12-2.12-6.36,4.97-12.72,9.95-19.08,14.92-1.36,1.06.38,3.21,1.82,2.36,10.04-5.95,20.39-11.38,30.99-16.26l-1.51-2.59c-7.73,4.2-15.23,8.8-22.48,13.78l1.82,2.36c5.51-4.59,11.02-9.18,16.53-13.77l-2.36-1.82c-2.15,3.28-4.29,6.55-6.44,9.83l2.74,1.16c1.85-4.83,3.69-9.67,5.54-14.5.53-1.4-1.55-2.55-2.51-1.46-6.16,6.99-12.31,13.98-18.47,20.97l2.12,2.12c5.38-6.41,11.63-12.04,18.61-16.67l-1.82-2.36c-5.69,6.34-11.39,12.68-17.08,19.02-1.09,1.21.32,3.33,1.82,2.36,5.19-3.37,10.09-7.17,14.64-11.37l-2.12-2.12c-8.18,9.43-17.53,17.8-27.85,24.85l1.82,2.36c3-2.57,6.18-4.91,9.53-7.01,1.63-1.02,3.3-1.99,5-2.9,1.33-.71,3.14-1.79,4.56-.78l-.54-2.05c-1.93,3.2-4.9,5.48-8.05,7.4-3.52,2.15-7.21,4.06-10.85,5.99-7.67,4.06-15.56,7.77-24.01,9.88l1.16,2.74c11.67-8.72,24.01-16.51,36.9-23.29l-1.51-2.59c-5.67,4.37-11.64,8.33-17.87,11.84l1.82,2.36c6.12-6.62,12.94-12.56,20.37-17.67l-1.82-2.36c-8.08,6.92-16.8,13.04-26.03,18.33l1.51,2.59c4.34-2.98,8.93-5.56,13.73-7.73l-1.51-2.59c-11.63,6.51-23.53,12.52-35.68,18.01l1.51,2.59c4.02-3.04,8.83-4.59,13.87-4.4l-.4-2.95c-8.61,3.59-17.43,6.66-26.41,9.21l.8,2.89c4.98-1.67,10.12-2.87,15.34-3.53l-.4-2.95c-7.9,1.23-15.55,3.53-22.85,6.78-1.66.74-.39,3.02,1.16,2.74,5.9-1.05,11.8-2.1,17.7-3.15l-.8-2.89c-5.13,1.19-10.35,1.74-15.62,1.69l1.06,2.56c3.84-3.26,8.32-5.67,13.15-7.12,1.58-.47,1.34-3.01-.4-2.95-3.37.12-6.75.24-10.12.36l.4,2.95c6.02-2.36,12.21-4.24,18.53-5.63,1.9-.42,1.08-3.25-.8-2.89-6.44,1.21-12.75,3-18.87,5.35-1.77.68-1.11,3.39.8,2.89,6.19-1.62,12.38-3.23,18.56-4.85,1.75-.46,1.19-2.77-.4-2.95-3.21-.36-6.38-.99-9.5-1.86-1.51-.42-3-.9-4.47-1.43-1.13-.41-2.49-.87-3.29-1.83-1.69-2.04,2.45-4.97,3.72-6.14,2.41-2.21,4.93-4.29,7.57-6.22,1.13-.83.85-2.81-.76-2.8-5.13.06-10.27.11-15.4.17l.4,2.95c7-2.29,14.21-3.87,21.54-4.66,1.87-.2,1.98-2.99,0-3-5.47-.01-10.93-.03-16.4-.04l.76,2.8c2.78-2.11,5.56-4.21,8.34-6.32,1.12-.85.86-2.78-.76-2.8-11.78-.09-23.54.77-35.19,2.52l1.16,2.74c9.47-4.16,19.44-7,29.36-9.84,1.38-.39,1.48-2.55,0-2.89-7.12-1.64-14.38-2.59-21.68-2.82-4.65-.15-11.08-.04-13.95-4.45v1.51c3.82-7.15,12.4-9.53,19.68-11.44,1.34-.35,1.52-2.67,0-2.89-7.17-1.07-14.38-.92-21.49.5-1.64.33-1.29,3.09.4,2.95,5.4-.44,10.82-.39,16.21.15l-.4-2.95c-4.62.72-9.24,1.44-13.85,2.17-1.74.27-1.21,2.86.4,2.95,7.95.4,15.91.81,23.86,1.21l-.4-2.95c-8.15,1.91-16.43,3.14-24.79,3.68v3c9.08-.84,18.38-1.68,27.32.64v-2.89c-9.81,1.88-19.43,4.66-28.73,8.31-.98.38-1.31,1.25-.9,2.2,1.09,2.52,3.8,3.61,6.33,4.06,3.51.64,7.12.86,10.66,1.26,7.81.88,15.61,1.76,23.42,2.65l-.4-2.95c-13.6,2.01-27.21,4.03-40.81,6.04-1.7.25-1.25,2.96.4,2.95,12.16-.09,24.32-.19,36.47-.28v-3c-11.69,1.2-23.33,2.8-34.91,4.82-1.72.3-1.23,2.9.4,2.95,9.89.27,19.78.54,29.66.82l-.4-2.95c-11.57,1.6-23.15,3.2-34.72,4.8l.8,2.89c8.85-1.49,17.85-1.86,26.79-1.17v-3c-9.43.27-18.8,1.75-27.84,4.41-1.32.39-1.53,2.63,0,2.89,7.84,1.34,15.69,2.68,23.53,4.02v-2.89c-10.2,4.19-20.41,8.37-30.61,12.56-1.55.64-1.36,2.8.4,2.95,8.57.69,17.13,1.39,25.7,2.08l-.4-2.95c-7.16,2.04-14.52,3.11-21.97,3.19v3c8.9-1.1,17.86-1.49,26.82-1.17v-3c-7.2.28-14.4.34-21.6.19l.4,2.95c8.59-1.6,17.35-2.01,26.06-1.28l-.4-2.95c-8.15,2.54-16.15,5.51-24,8.87-1.16.5-.86,2.52.36,2.74,4.65.83,9.39.43,13.79-1.35,1.18-.48,1.65-2.64,0-2.89-.89-.13-1.79-.27-2.68-.4v2.89c4.33-.74,8.72-.89,13.09-.53l-.4-2.95c-5.16,1.02-10.32,2.05-15.48,3.07-1.63.32-1.29,3.14.4,2.95,5.23-.59,10.45-1.17,15.68-1.76,1.88-.21,1.97-2.91,0-3-5.43-.24-10.86-.48-16.28-.71l.4,2.95c6.58-1.29,13.02-3.18,19.25-5.64,1.28-.51,1.56-2.5,0-2.89-6.87-1.75-13.74-3.5-20.62-5.25v2.89c9.71-2.99,19.75-4.57,29.77-6.12,1.71-.27,1.24-2.92-.4-2.95-12.33-.2-24.66-.4-36.98-.6l.4,2.95c13.18-1.98,26.36-3.96,39.55-5.94,1.74-.26,1.21-2.87-.4-2.95-10.13-.48-20.26-.97-30.39-1.45l.4,2.95c16.64-2.32,33.28-4.64,49.91-6.95,4.78-.67,9.55-1.33,14.33-2,1.47-.21,1.39-2.61,0-2.89-18.09-3.67-36.55-4.57-54.94-5.44v3c16.21-1.78,32.43-3.56,48.64-5.34,1.87-.21,1.98-3,0-3-17.86-.02-35.72-.03-53.59-.05l.4,2.95c16.77-3.95,33.96-5.61,51.12-6.71,4.92-.32,9.83-.59,14.75-.87,1.92-.11,1.94-3.07,0-3-19.19.7-38.38,1.4-57.59,1.11-5.46-.09-10.92-.26-16.37-.52l.4,2.95c22.13-5.16,44.75-7.68,67.36-9.57,6.46-.54,12.93-1.03,19.39-1.53,1.91-.15,1.94-3.11,0-3-21.45,1.2-42.9,2.4-64.35,3.6-6.02.34-12.07.8-18.09.29l.4,2.95c17.58-5.74,35.91-8.92,54.4-9.4v-3c-20.02,1.62-40.04,3.23-60.06,4.85l.4,2.95c10.5-3.63,21.88-3.61,32.85-4.12,11.55-.54,23.11-.98,34.68-1.32,6.61-.19,13.22-.35,19.82-.48v-3c-20.6.87-41.2,1.75-61.79,2.62-5.81.25-11.63.49-17.44.74l.4,2.95c19.16-5.27,38.88-7.9,58.54-10.48,1.85-.24,1.99-3.07,0-3-13.63.49-27.28.96-40.92.42l.4,2.95c18.43-4.44,37.45-6.08,56.38-4.9v-3c-19.38,1.78-38.78,3.27-58.21,4.44-5.54.33-11.08.64-16.62.93v3c21.46-1.33,42.93-2.42,64.41-3.27,6.05-.24,12.11-.46,18.17-.66v-3c-17.18,1.23-34.28,3.42-51.22,6.54l1.16,2.74c13.51-7.34,28.43-11.52,43.48-14.3,4.29-.79,8.6-1.47,12.92-2.08l-.8-2.89c-10.09,1.46-20.19,2.92-30.28,4.37l.8,2.89c10.84-3.71,22.06-6.28,33.45-7.58v-3c-11,1.48-21.88,3.69-32.58,6.68-1.58.44-1.33,3.07.4,2.95,9.96-.69,19.92-1.38,29.89-2.07l-.4-2.95c-14.47,3.62-29.19,6.14-44.04,7.5l.4,2.95c14.9-4.29,30.2-7.14,45.65-8.47l-.4-2.95c-9.45,1.51-18.91,3.03-28.36,4.54-4.62.74-9.26,1.44-13.87,2.23-4.21.72-8.35,1.7-12.18,3.64-1.42.72-.62,2.7.76,2.8,15.54,1.09,31.17.19,46.5-2.6,1.68-.31,1.27-2.98-.4-2.95-12.14.21-24.28.42-36.42.63l.4,2.95c12.01-3.78,24.19-6.98,36.5-9.57,1.65-.35,1.29-3.01-.4-2.95-8.06.28-16.04,1.79-23.63,4.51-1.52.55-1.38,2.97.4,2.95,13.83-.21,27.66-.41,41.49-.62l-.4-2.95c-10.11,2.76-20.22,5.53-30.33,8.29l.8,2.89c14.49-5,29.02-10,44.05-13.14l-1.69-2.2c-6.64,8.98-13.29,17.95-19.93,26.93-.76,1.02.51,2.65,1.69,2.2,8.76-3.33,15.13-10.31,21.16-17.2l-2.51-1.46c-.72,2.71-1.44,5.41-2.16,8.12-.41,1.53,1.4,2.39,2.51,1.46,2.36-2,3.96-4.79,4.46-7.85.14-.84-.38-2.03-1.45-1.9-5.98.74-11.94,1.65-17.87,2.74l1.46,2.51c5.16-5.11,10.92-9.52,17.19-13.19,1.41-.83.46-3.4-1.16-2.74-8.55,3.47-17.28,7.02-26.54,7.98l1.06,2.56c7.26-6.46,14.52-12.92,21.79-19.38,1.03-.92.15-2.49-1.06-2.56-12.79-.74-25.35,2.34-37.67,5.43l.8,2.89c9.97-3.8,20.47-6.02,31.13-6.53l-.4-2.95c-6.13,1.05-12.22,2.27-18.27,3.69-2.93.68-5.86,1.41-8.77,2.18-2.57.69-5.04,1.54-7.06,3.33-.94.84-.22,2.65,1.06,2.56,8.23-.57,16.45-1.14,24.68-1.71,7.2-.5,15.32-.37,21.55-4.55,2.92-1.96,5.23-4.69,6.24-8.1.56-1.88-2.22-2.57-2.89-.8-2.6,6.89-5.21,13.78-7.81,20.67-.55,1.47,1.5,2.43,2.51,1.46,4.83-4.69,8.99-10.05,12.33-15.9.98-1.72-1.46-3.02-2.59-1.51-5.02,6.71-10.04,13.42-15.05,20.14l2.59,1.51c6.12-8.37,8.57-18.98,6.99-29.2-.22-1.43-2.07-1.25-2.74-.36-6.46,8.61-9.98,19.22-10.04,29.98,0,1.33,1.63,1.93,2.56,1.06,5.82-5.44,10.09-12.35,12.41-19.96.52-1.72-1.8-2.48-2.74-1.16-8.12,11.45-11.35,25.36-17.99,37.59-1.86,3.43-4,6.7-6.55,9.66l2.51,1.46c5.79-15.22,12.52-30.06,20.13-44.45.9-1.71-1.69-3.22-2.59-1.51h0Z"/>
    <path class="cls-3" d="M222.21,221.98c-2.83,5.13-9,7.25-11.85,12.45-1.69,3.09-2.57,6.63-3.65,9.97-1.2,3.69-2.39,7.38-3.59,11.07-.6,1.86,2.23,2.58,2.89.8,5.68-15.16,12.81-29.76,21.23-43.59,1.01-1.65-1.59-3.16-2.59-1.51-8.56,14.05-15.76,28.9-21.53,44.3l2.89.8c1.15-3.54,2.29-7.07,3.44-10.61,1.09-3.35,1.92-7.03,3.71-10.09,2.89-4.93,8.85-7.01,11.64-12.07.93-1.69-1.66-3.21-2.59-1.51h0Z"/>
    <path class="cls-1" d="M14.6,175.74c4.67,3.63,9.03,7.63,13.05,11.97,1.32,1.42,3.43-.71,2.12-2.12-4.02-4.34-8.38-8.34-13.05-11.97-.64-.5-1.5-.62-2.12,0-.52.52-.64,1.62,0,2.12h0Z"/>
    <path class="cls-3" d="M13.33,184.56c5.94,3.01,11.79,6.19,17.54,9.53.75.44,2.06.09,2.2-.9.93-6.42-4.21-10.49-9.03-13.61-1.37-.89-2.62.8-2.05,2.05,1.52,3.31,4.03,6.04,7.16,7.89,1.13.67,2.54-.44,2.2-1.69-.8-2.97-3.94-4.85-6.2-6.68-2.7-2.17-5.45-4.29-8.23-6.34l-1.51,2.59c2.79,2.04,5.52,4.16,8.18,6.35,1.51,1.25,3.3-.61,2.12-2.12-2.86-3.67-6.21-6.86-9.96-9.61-1.56-1.15-3.04,1.45-1.51,2.59,2.74,2.06,5.67,3.82,8.78,5.26,1.42.66,3.24-1.2,1.82-2.36-4.57-3.71-9.14-7.42-13.71-11.14l.23,1.82c-.25.47-.7.04-.23.42.22.18.75.32,1,.42.63.28,1.26.56,1.88.86,1.32.62,2.61,1.28,3.89,1.97,2.56,1.39,5.03,2.92,7.43,4.58l1.51-2.59c-5.15-2.89-10.3-5.77-15.45-8.66l-1.51,2.59c6.52,3.2,13.04,6.39,19.57,9.59l1.16-2.74c-5.24-2.05-10.63-3.66-16.13-4.84-1.88-.4-2.65,2.31-.8,2.89,10.7,3.36,21.54,6.25,32.5,8.67,1.88.42,2.68-2.44.8-2.89-10.7-2.56-21.55-4.46-32.48-5.74-1.51-.18-2,2.13-.76,2.8,3.79,2.05,7.85,3.51,12.08,4.3,1.89.35,2.7-2.54.8-2.89-3.99-.75-7.79-2.07-11.36-4l-.76,2.8c10.66,1.25,21.24,3.14,31.68,5.64l.8-2.89c-10.95-2.42-21.79-5.32-32.5-8.67l-.8,2.89c5.5,1.17,10.89,2.79,16.13,4.84,1.58.62,2.68-2,1.16-2.74-6.52-3.2-13.04-6.39-19.57-9.59-1.72-.84-3.22,1.64-1.51,2.59,5.15,2.89,10.3,5.77,15.45,8.66,1.71.96,3.09-1.5,1.51-2.59-3.09-2.13-6.31-4.06-9.67-5.74-1.62-.81-3.28-1.64-4.98-2.28-1.23-.47-2.73-.46-3.43.86-.29.54-.29,1.39.23,1.82,4.57,3.71,9.14,7.42,13.71,11.14l1.82-2.36c-3.11-1.45-6.04-3.2-8.78-5.26l-1.51,2.59c3.53,2.6,6.66,5.69,9.35,9.14l2.12-2.12c-2.86-2.36-5.79-4.63-8.79-6.82-1.56-1.14-3.05,1.46-1.51,2.59,2.45,1.81,4.87,3.67,7.25,5.57,1.12.89,2.22,1.8,3.32,2.71.98.82,2.13,1.64,2.48,2.94l2.2-1.69c-2.72-1.61-4.77-3.94-6.09-6.81l-2.05,2.05c3.43,2.22,8.34,5.44,7.65,10.22l2.2-.9c-5.75-3.35-11.6-6.53-17.54-9.53-1.72-.87-3.24,1.72-1.51,2.59h0Z"/>
    <path class="cls-3" d="M22.15,179.33c-2.18-1.4-4.7-2.58-7.26-3.05-2.37-.44-3.47,1.72-2.65,3.73s2.81,3.96,4.32,5.53c1.79,1.87,3.77,3.54,5.86,5.07.49.35,1.43.24,1.82-.23,1.65-2.04.22-4.25-.99-6.12-1.42-2.19-3.07-4.24-4.84-6.16-3.56-3.83-7.64-7.13-11.71-10.4-1.21-.98-3.4.29-2.36,1.82,1.51,2.22,2.82,4.54,3.93,6.99.53,1.16,2.49.85,2.74-.36.66-3.21.6-6.44-.21-9.62-.43-1.7-2.85-1.24-2.95.4-.11,1.85.06,3.68.46,5.49l2.89-.8c-.88-2.87-2.4-5.44-4.5-7.58-.86-.88-2.66-.27-2.56,1.06.33,4.41,1.83,8.8,2.9,13.08.93,3.72,1.43,8.16,4.15,11.07,1.32,1.41,3.44-.71,2.12-2.12-1.15-1.23-1.63-2.82-2.05-4.41-.51-1.93-.97-3.86-1.45-5.79s-.99-3.98-1.49-5.97-1.04-3.86-1.19-5.85l-2.56,1.06c1.74,1.78,3.01,3.88,3.73,6.26.57,1.85,3.32,1.09,2.89-.8-.35-1.56-.45-3.1-.36-4.69l-2.95.4c.67,2.65.76,5.35.21,8.03l2.74-.36c-1.11-2.44-2.42-4.77-3.93-6.99l-2.36,1.82c3.44,2.76,6.88,5.54,10.02,8.65,1.53,1.52,3,3.11,4.32,4.82.66.85,1.28,1.74,1.86,2.65.29.45.57.91.84,1.38.11.19.19.39.3.58.07.12.06.54.21.35l1.82-.23c-2.82-2.05-5.37-4.49-7.56-7.21-.42-.52-.85-1.42-1.36-1.85l-.08-.26c-.04-.4-.26-.23-.68.51.03.1,1.16.3,1.26.33,1.83.54,3.52,1.36,5.12,2.39s3.14-1.55,1.51-2.59h0Z"/>
    <path class="cls-3" d="M17.66,190.12c1.93,0,1.93-3,0-3s-1.93,3,0,3h0Z"/>
    <path class="cls-3" d="M25.85,205.78c7.42,10.32,15.55,20.14,24.59,29.08,2.83-6.83,5.66-13.66,8.49-20.49-.59.06-1.15.05-1.74,0l3.19.43c-.89-.14-1.73-.4-2.58-.73l2.87,1.21c-3.61-1.54-7.15-3.69-10.27-6.07l2.43,1.88c-1.8-1.41-3.43-2.99-4.85-4.79l1.88,2.43c-2.44-3.19-4.31-6.77-6.28-10.26-2.15-3.81-4.29-7.61-6.44-11.42-2.94-5.22-9.61-7.18-14.99-4.91-2.31.97-4.54,2.63-5.74,4.91-1.41,2.67-2.38,6.31-1.21,9.25,1.7,4.25,3.63,8.07,6.4,11.71s5.54,6.89,8.25,10.38l-1.88-2.43c2.19,2.84,4.13,5.82,5.53,9.14l-1.21-2.87c1.76,4.32,2.79,8.89,4.48,13.23,2.27,5.83,4.87,10.93,9.09,15.62,1.99,2.21,5.57,3.51,8.49,3.51s6.46-1.31,8.49-3.51,3.66-5.29,3.51-8.49-1.35-5.96-3.51-8.49c-3.19-3.73-6.38-7.46-9.57-11.18s-6.26-7.11-9.17-10.83l1.88,2.43c-1.59-2.06-2.95-4.24-3.99-6.63l1.21,2.87c-1.03-2.46-1.72-5.02-2.11-7.66l.43,3.19c-.35-2.66-.38-5.32-.06-7.99l-.43,3.19c.06-.41.12-.83.19-1.24.5-1.6.57-3.19.21-4.79-.07-1.6-.55-3.08-1.42-4.46-1.46-2.49-4.31-4.86-7.17-5.51-3.07-.7-6.52-.55-9.25,1.21-2.47,1.59-5.01,4.15-5.51,7.17-1.05,6.31-1.07,12.24.42,18.51,1.18,4.97,3.41,9.81,6.49,13.89,3.4,4.52,7.16,8.75,10.84,13.04,3.35,3.92,6.71,7.84,10.06,11.75,5.66-5.66,11.31-11.31,16.97-16.97-.46-.51-.89-1.03-1.31-1.57l1.88,2.43c-1.7-2.26-3.01-4.75-4.12-7.35l1.21,2.87c-2.87-6.89-4.22-14.3-7.89-20.88-3.2-5.72-7.81-10.53-11.8-15.69l1.88,2.43c-2.05-2.67-3.89-5.47-5.23-8.57l1.21,2.87c-.1-.24-.2-.49-.3-.74l-21.93,9.25c2.27,4.02,4.54,8.05,6.8,12.07,2.49,4.41,4.97,8.61,8.19,12.55,2.99,3.65,7,6.53,11.02,8.95,4.88,2.94,10.61,6.22,16.5,5.65,2.11-.2,4.19-.55,6.06-1.64,2.26-1.32,3.91-3.36,4.91-5.74,1.85-4.38.97-9.7-2.48-13.11-6.54-6.47-12.63-13.38-18.25-20.66l1.88,2.43c-1.52-1.97-3.01-3.97-4.46-5.99-1.87-2.6-3.98-4.64-7.17-5.51-2.87-.79-6.7-.43-9.25,1.21s-4.82,4.11-5.51,7.17-.65,6.66,1.21,9.25h0Z"/>
    <path class="cls-3" d="M14.41,192.17c20.78,5.07,41.56,10.13,62.33,15.2,5.9,1.44,11.8,2.88,17.7,4.32l6.38-23.14c-17.02-3.65-34.03-7.3-51.05-10.96-3.15-.68-6.41-.45-9.25,1.21-2.49,1.46-4.86,4.31-5.51,7.17-.7,3.07-.55,6.52,1.21,9.25s4.1,4.71,7.17,5.51c16.88,4.45,33.76,8.89,50.64,13.34l3.19-23.57c-14.32-.02-28.64.71-42.88,2.2-3.27.34-6.08,1.11-8.49,3.51-2.08,2.08-3.65,5.5-3.51,8.49.3,6.62,5.27,11.86,12,12,20.25.43,40.51.01,60.72-1.24,3.05-.19,6.34-1.17,8.49-3.51,1.82-1.98,2.94-4.21,3.3-6.89.78-5.83-2.79-11.58-8.6-13.17-9.12-2.5-18.65-3.86-28.1-4.09v24c6.52-.41,13.05-.18,19.53.67l-3.19-.43c2.04.28,4.07.61,6.1,1.01v-23.14c-11.69,1.95-23.22,4.84-34.43,8.7-7.25,2.49-15.58,4.77-19.57,11.97-3.83,6.92-1.42,15.69,5.37,19.74,3.14,1.88,6.86,2.48,10.37,3.31,6.75,1.61,13.51,3.23,20.26,4.84l3.19-23.57c-12.85-.72-25.69-1.45-38.54-2.17l-3.19.43-2.87,1.21c-2.26,1.32-3.91,3.36-4.91,5.74-.86,2.04-1.11,4.02-.82,6.22.37,2.76,1.48,4.76,3.3,6.89,4.7,5.51,11.34,8.72,17.98,11.21,5.16,1.94,10.54,3.27,15.63,5.4l-2.87-1.21c2.62,1.12,5.14,2.44,7.42,4.16l-2.43-1.88c.78.61,1.54,1.23,2.2,1.97l-1.88-2.43c.25.33.42.61.58.99l-1.21-2.87.09.37-.43-3.19c.03.21.04.41.02.62l.43-3.19c-.02.19-.07.38-.14.57l1.21-2.87c-.07.18-.17.35-.28.51l1.88-2.43c-.26.34-.55.61-.89.87l2.43-1.88c-.48.33-.97.58-1.51.81l2.87-1.21c-1.66.64-3.45.95-5.18,1.36-2.11.5-4.22,1-6.33,1.49-4.14.98-8.27,1.95-12.41,2.93-1.88.44-3.94,1.73-5.3,3.09-1.88,1.88-2.95,4.29-3.3,6.89-.29,2.2-.04,4.18.82,6.22,1.08,2.55,2.65,4.1,4.91,5.74.38.27.75.55,1.12.83l-2.43-1.88c2.95,2.28,5.6,4.9,7.91,7.82,4.85-6.28,9.69-12.56,14.54-18.85-3.36-1.77-6.54-3.81-9.55-6.12l2.43,1.88c-2.87-2.24-5.55-4.69-8.02-7.37-1.95-2.11-5.61-3.64-8.49-3.51-2.71.12-5.11.91-7.27,2.58-4.79,3.7-5.96,10.16-3.09,15.48,4.83,8.96,13.88,14.14,22.9,18,9.73,4.16,19.66,7.73,29.59,11.37,5.2,1.9,10.37,3.86,15.47,6.01l-2.87-1.21c3.59,1.52,7.14,3.14,10.63,4.91l6.06-22.36c-3.64-.28-7.28-.66-10.9-1.14l3.19.43c-13.01-1.77-25.81-4.88-38.18-9.29l-6.38,23.14c19.24,3.48,38.4,7.56,57.89,9.42,17.7,1.69,35.8,1.13,53.1-3.25,8.76-2.22,17.37-5.55,25.29-9.92s15.63-10.64,22.66-16.9,13.49-11.97,19.66-18.53,11.75-13.85,16.38-21.61c4.57-7.64,8.26-15.87,11.13-24.29,2.91-8.52,4.62-17.28,5.66-26.2.23-1.98.41-3.96.53-5.94l-.43-3.19-1.21-2.87c-1.32-2.26-3.36-3.91-5.74-4.91-4.34-1.83-9.75-1-13.11,2.48-4.62,4.79-9.65,9.15-14.91,13.22l2.43-1.88c-11.62,8.96-24.14,16.77-36.37,24.87-12.93,8.56-25.86,17.11-38.79,25.67-7.35,4.86-14.69,9.72-22.04,14.58,4.85,6.28,9.69,12.56,14.54,18.85,3.94-3.82,8.11-7.39,12.45-10.76l-2.43,1.88c14.2-10.96,30.01-19.54,46.03-27.5,4.53-2.25,9.09-4.46,13.65-6.66-4.85-6.28-9.69-12.56-14.54-18.85-8.51,9.25-17.61,17.94-27.24,26.01-2.14,1.79-3.64,5.75-3.51,8.49s.91,5.11,2.58,7.27c3.57,4.62,10.32,6.21,15.48,3.09,4.5-2.73,9.19-5.12,14.03-7.18l-2.87,1.21c5.29-2.22,10.74-4.03,16.32-5.41l-9.25-21.93c-12.57,9.67-25.15,19.34-37.72,29.01-1.4.75-2.52,1.78-3.37,3.09-1.06,1.16-1.78,2.52-2.15,4.08-.79,2.87-.43,6.7,1.21,9.25s4.11,4.82,7.17,5.51c3.28.75,6.23.28,9.25-1.21,14.15-6.97,27.67-15.17,40.4-24.48,2.6-1.9,4.63-3.95,5.51-7.17.79-2.87.43-6.7-1.21-9.25s-4.11-4.82-7.17-5.51l-3.19-.43c-2.17,0-4.18.55-6.06,1.64-16.24,7.32-29.24,19.84-44.17,29.28-4.14,2.62-8.45,4.98-12.96,6.89l2.87-1.21c-4.96,2.07-10.1,3.5-15.43,4.23l3.19-.43c-16.06,2.08-32.08-1.66-48.15-1.36-5.49.1-11.01.72-16.38,1.82-2.72.56-5.89,3.08-7.17,5.51s-1.79,4.92-1.42,7.65c.34,2.52,1.37,5.12,3.3,6.89l2.43,1.88c1.87,1.09,3.89,1.63,6.06,1.64,8.46,1.06,16.91,2.13,25.37,3.19,2.71.34,6.69-1.56,8.49-3.51s2.94-4.21,3.3-6.89c.76-5.64-2.75-11.83-8.6-13.17-8.08-1.85-15.99-4.39-23.63-7.6l2.87,1.21c-.62-.26-1.2-.55-1.76-.91l2.43,1.88c-.32-.25-.57-.49-.83-.8l1.88,2.43c-.15-.21-.27-.43-.35-.66l1.21,2.87c-.08-.22-.13-.44-.15-.67l.43,3.19c-.02-.22-.01-.45.02-.67l-.43,3.19c.04-.23.1-.44.18-.66l-1.21,2.87c.2-.46.44-.85.74-1.25l-1.88,2.43c.43-.51.9-.96,1.42-1.38l-2.43,1.88c1.85-1.38,4.07-2.29,6.19-3.2l-2.87,1.21c7.82-3.29,16.12-5.07,24.49-6.21l-3.19.43c8.54-1.14,17.14-1.64,25.72-2.43,5.19-.48,10.38-1.09,15.53-1.86,5.99-.9,12.3-3.57,15.16-9.31,1.76-3.52,2.15-7.01.6-10.68-1.34-3.19-4.19-6.28-7.78-6.95-22.75-4.23-45.79-6.79-68.82-8.94-6.29-.59-12.59-1.14-18.88-1.7l3.19,23.57c27.42-5.58,54.92-10.76,82.49-15.52,7.75-1.34,15.52-2.64,23.28-3.92,2.67-.44,5.94-3.18,7.17-5.51s1.79-4.92,1.42-7.65c-.79-5.87-5.77-10.35-11.79-10.4-18.73-.16-37.6-.09-55.99,3.91-4.88,1.06-9.69,2.45-14.37,4.19-2.86,1.06-5.68,2.69-7.17,5.51-1.28,2.42-1.79,4.92-1.42,7.65.34,2.52,1.37,5.12,3.3,6.89,2.19,2.01,5.39,3.87,8.49,3.51,26.74-3.04,53.35-7.22,79.69-12.73,3.55-.74,7.1-1.51,10.64-2.3s7.19-1.83,10.82-2.43l-3.19.43c.51-.05.96-.07,1.47-.03l-3.19-.43c.31.04.61.12.9.24l-2.87-1.21c.41.2.77.4,1.15.66l-2.43-1.88c.84.65,1.56,1.38,2.21,2.22l-1.88-2.43c.53.74.97,1.5,1.35,2.33l-1.21-2.87c.45,1.08.76,2.18.93,3.34l-.43-3.19c.12,1.03.11,2.04-.01,3.07l.43-3.19c-.14.89-.37,1.72-.69,2.56l1.21-2.87c-.4.93-.88,1.78-1.48,2.59l1.88-2.43c-.7.9-1.48,1.68-2.38,2.38l2.43-1.88c-.81.6-1.67,1.09-2.59,1.49l2.87-1.21c-.7.28-1.41.49-2.15.64-2.84.59-5.74,3.07-7.17,5.51-1.51,2.57-2.14,6.36-1.21,9.25s2.74,5.71,5.51,7.17c2.96,1.56,5.95,1.9,9.25,1.21,10.45-2.18,18.85-12.82,18.18-23.54-.37-5.99-2.52-11.36-6.61-15.81-2.33-2.53-5.46-4.5-8.81-5.32-3.85-.94-7.59-.08-11.33.79-16.33,3.79-32.77,7.09-49.3,9.89-9.37,1.59-18.77,3.01-28.19,4.28l3.19-.43c-5.65.76-11.31,1.46-16.98,2.1l3.19,23.57c8.02-2.99,16.38-4.86,24.85-6.01l-3.19.43c14.03-1.86,28.21-1.78,42.33-1.66-1.06-7.86-2.13-15.71-3.19-23.57-27.61,4.53-55.16,9.46-82.62,14.82-7.72,1.51-15.44,3.04-23.15,4.61-2.71.55-5.89,3.09-7.17,5.51s-1.79,4.92-1.42,7.65c.34,2.52,1.37,5.12,3.3,6.89,2.46,2.26,5.16,3.22,8.49,3.51,19.49,1.72,38.98,3.45,58.37,6.06l-3.19-.43c8.75,1.18,17.47,2.54,26.14,4.15-2.39-5.88-4.78-11.75-7.17-17.63-.16.32-.33.6-.54.89l1.88-2.43c-.3.36-.62.66-.99.94l2.43-1.88c-.49.34-1,.61-1.55.84l2.87-1.21c-2.28.88-4.78,1.11-7.18,1.44l3.19-.43c-14.91,1.99-30,2.25-44.84,4.88-7.77,1.37-15.12,3.69-22.34,6.87-4.57,2.02-8.91,4.7-11.51,9.13-4.44,7.56-1.48,17.56,6.52,21.28,8.54,3.96,17.7,6.87,26.86,8.97l3.19-23.57c-8.46-1.06-16.91-2.13-25.37-3.19l3.19,23.57c1.4-.29,2.8-.53,4.21-.73l-3.19.43c10.14-1.36,20.36-.37,30.49.47,11.11.93,22.07,1.35,33.1-.73,18.15-3.42,32.99-14.98,47.46-25.68,7.81-5.77,15.81-11.4,24.7-15.4-4.04-6.91-8.08-13.82-12.11-20.72-12.73,9.31-26.25,17.51-40.4,24.48,4.04,6.91,8.08,13.82,12.11,20.72,12.57-9.67,25.15-19.34,37.72-29.01,1.4-.75,2.52-1.78,3.37-3.09,1.06-1.16,1.78-2.52,2.15-4.08.61-2.68.47-5.27-.6-7.81-2.34-5.55-8.29-8.4-14.16-6.95-11.63,2.88-22.96,7.6-33.21,13.8,4.85,6.28,9.69,12.56,14.54,18.85,9.63-8.07,18.73-16.76,27.24-26.01,4.07-4.43,4.67-10.93.94-15.76-1.53-1.98-3.72-3.73-6.23-4.3-3.29-.75-6.21-.26-9.25,1.21-20.09,9.71-40.36,19.54-58.23,33.05-5.68,4.3-11.2,8.79-16.32,13.75-4.31,4.17-4.51,11.14-.94,15.76s10.46,6.41,15.48,3.09c15.5-10.26,31-20.51,46.5-30.77,7.71-5.1,15.43-10.21,23.14-15.31,7.13-4.72,14.3-9.37,21.25-14.35,8.35-5.98,16.5-12.37,23.64-19.78l-20.49-8.49c-.17,2.65-.43,5.29-.78,7.92l.43-3.19c-1.35,9.79-3.99,19.36-7.82,28.47l1.21-2.87c-3.75,8.83-8.58,17.15-14.42,24.76l1.88-2.43c-5.08,6.56-10.92,12.43-17.01,18.05s-12.47,11.55-19.17,16.73l2.43-1.88c-5.96,4.56-12.4,8.33-19.32,11.25l2.87-1.21c-8.71,3.63-17.9,5.91-27.24,7.17l3.19-.43c-15.58,2.05-31.31,1.19-46.84-.89l3.19.43c-14.94-2.03-29.69-5.13-44.52-7.81-3.24-.59-6.32-.5-9.25,1.21-2.49,1.46-4.86,4.31-5.51,7.17-.7,3.07-.55,6.52,1.21,9.25s4.1,4.42,7.17,5.51c16.83,6.01,34.46,9.5,52.27,10.86l3.19-.43c1.56-.37,2.92-1.09,4.08-2.15,1.98-1.53,3.73-3.72,4.3-6.23.48-2.11.48-4.27,0-6.38-.61-2.69-3.04-5.92-5.51-7.17-17.53-8.87-36.49-14.22-54.56-21.8l2.87,1.21c-4.79-2.02-9.61-4.14-13.77-7.31l2.43,1.88c-1.57-1.24-3-2.6-4.23-4.18l1.88,2.43c-.64-.85-1.22-1.74-1.72-2.68-6.28,4.85-12.56,9.69-18.85,14.54,5.7,6.16,12.58,11.45,20,15.36,5.33,2.81,11.74,1.75,15.48-3.09,1.56-2.02,2.69-4.64,2.58-7.27l-.43-3.19c-.57-2.03-1.6-3.8-3.09-5.3-3.27-4.13-7.21-7.45-11.46-10.53l-2.87,21.93c5.32-1.26,10.64-2.51,15.96-3.77,6.75-1.59,14.2-3,17.81-9.73,3.21-5.98,1.75-13.39-3.25-17.93-2.01-1.82-4.25-3.5-6.59-4.88-4.03-2.37-8.51-4.04-12.94-5.51-4.13-1.37-8.33-2.56-12.35-4.24l2.87,1.21c-2.57-1.1-5.04-2.41-7.26-4.12l2.43,1.88c-1.19-.95-2.28-1.99-3.27-3.15-2.83,6.83-5.66,13.66-8.49,20.49,12.85.72,25.69,1.45,38.54,2.17,2.84.16,6.57-1.43,8.49-3.51,1.82-1.98,2.94-4.21,3.3-6.89.76-5.69-2.76-11.77-8.6-13.17-4.64-1.11-9.29-2.22-13.93-3.33-2.28-.54-4.56-1.09-6.84-1.63-2.1-.5-4.34-.84-6.35-1.64l2.87,1.21c-.34-.16-.63-.33-.94-.55l2.43,1.88c-.19-.15-.35-.31-.5-.5l1.88,2.43c-.14-.19-.26-.4-.35-.62l1.21,2.87c-.08-.2-.14-.41-.16-.63l.43,3.19c-.02-.21-.02-.41.01-.62l-.43,3.19c.03-.21.09-.41.16-.61l-1.21,2.87c.14-.32.3-.58.49-.87l-1.88,2.43c.39-.49.82-.91,1.3-1.3l-2.43,1.88c.73-.55,1.5-.99,2.33-1.36l-2.87,1.21c13.66-5.59,28.23-9.34,42.77-11.76l2.87-1.21c1.4-.75,2.52-1.78,3.37-3.09,1.56-2.02,2.69-4.64,2.58-7.27-.1-2.13-.64-4.17-1.64-6.06-1.27-2.41-4.47-4.99-7.17-5.51-9.48-1.85-19.16-2.7-28.81-2.1-3.19.2-6.17,1.2-8.49,3.51-2.08,2.08-3.65,5.5-3.51,8.49.3,6.64,5.27,11.83,12,12,3.7.09,7.39.38,11.07.85l-3.19-.43c4.67.63,9.29,1.57,13.84,2.81l3.19-23.57c-20.21,1.25-40.48,1.67-60.72,1.24v24c14.24-1.49,28.56-2.23,42.88-2.2,5.99.01,11-4.57,11.79-10.4s-2.78-11.63-8.6-13.17c-16.88-4.45-33.76-8.89-50.64-13.34l-6.38,23.14c17.02,3.65,34.03,7.3,51.05,10.96,3.15.68,6.41.45,9.25-1.21,2.49-1.46,4.86-4.31,5.51-7.17.7-3.07.55-6.52-1.21-9.25-1.67-2.59-4.11-4.77-7.17-5.51-20.78-5.07-41.56-10.13-62.33-15.2-5.9-1.44-11.8-2.88-17.7-4.32-3.08-.75-6.48-.41-9.25,1.21-2.49,1.46-4.86,4.31-5.51,7.17-.7,3.07-.55,6.52,1.21,9.25,1.67,2.59,4.11,4.77,7.17,5.51h0Z"/>
    <path class="cls-3" d="M34.86,173.27c-.39-.31-.73-.66-1.04-1.06l1.88,2.43c-.45-.6-.79-1.26-1.09-1.95l1.21,2.87c-.45-1.08-.78-2.2-1.16-3.3-.51-1.46-1.13-2.9-1.77-4.31-.25-.55-.53-1.07-.87-1.57-1.83-2.66-3.84-4.71-6.65-6.37-1.08-.64-2.23-1.15-3.24-1.91l2.43,1.88c-.36-.29-.68-.6-.97-.96l1.88,2.43c-.12-.16-.22-.32-.33-.5-1.54-2.61-4.24-4.71-7.17-5.51-1.6-.5-3.19-.57-4.79-.21-1.6.07-3.08.55-4.46,1.42-2.56,1.65-4.82,4.11-5.51,7.17s-.47,6.42,1.21,9.25c.63,1.06,1.47,2.07,2.26,3,.19.22.38.44.61.63,1.17,1.03,2.45,2.05,3.81,2.84,1.09.64,2.24,1.16,3.25,1.93l-2.43-1.88c.4.33.76.69,1.08,1.1l-1.88-2.43c.46.61.81,1.27,1.11,1.97l-1.21-2.87c.59,1.41.98,2.89,1.54,4.31.61,1.54,1.18,3.22,2.09,4.63.71,1.11,1.57,2.17,2.43,3.17.25.28.52.54.81.77,1.09,1.17,2.37,2,3.86,2.48,1.43.75,2.97,1.1,4.62,1.03,1.65.06,3.19-.28,4.62-1.03,1.49-.48,2.78-1.31,3.86-2.48,2.1-2.29,3.66-5.29,3.51-8.49l-.43-3.19c-.57-2.03-1.6-3.8-3.09-5.3h0Z"/>
  </g>
  <g id="Capa_2" data-name="Capa 2">
    <circle class="cls-5" cx="150.04" cy="149.64" r="148.85"/>
  </g>
  <g id="Capa_4" data-name="Capa 4">
    <circle class="cls-1" cx="148.89" cy="173.68" r="38.93"/>
  </g>
  <g id="Capa_6" data-name="Capa 6">
    <path class="cls-1" d="M4.62,130.17s141.98,66.41,290.84,0l2.29,20.61,2.29,13.74s-143.42,70.99-297.71-2.29L.04,148.49l4.58-18.32Z"/>
  </g>
  <g id="Capa_5" data-name="Capa 5">
    <circle class="cls-3" cx="148.89" cy="173.68" r="25.19"/>
  </g>
</svg>